<?xml version="1.0" encoding="UTF-8"?>
<svg version="1.1" xmlns="http://www.w3.org/2000/svg" width="1920" height="1080">
<path d="M0 0 C633.6 0 1267.2 0 1920 0 C1920 356.4 1920 712.8 1920 1080 C1286.4 1080 652.8 1080 0 1080 C0 723.6 0 367.2 0 0 Z " fill="#F2FBFD" transform="translate(0,0)"/>
<path d="M0 0 C0.66 -0.33 1.32 -0.66 2 -1 C4.94733489 -1.10051092 7.86540705 -1.14087354 10.8125 -1.125 C11.66239502 -1.12306641 12.51229004 -1.12113281 13.38793945 -1.11914062 C20.29679709 -1.07222581 27.12337767 -0.69136598 34 0 C34 0.66 34 1.32 34 2 C35.24716797 1.91878906 35.24716797 1.91878906 36.51953125 1.8359375 C40.59040034 2.02783032 43.93848098 3.15308939 47.6875 4.625 C48.38866943 4.89497803 49.08983887 5.16495605 49.81225586 5.44311523 C57.31482951 8.40481565 64.34905263 11.98480075 70.875 16.75 C73.78635003 19.05543741 73.78635003 19.05543741 76.6875 20 C79.76745386 21.33187194 80.94123803 23.37975749 83 26 C83.9075 26.598125 84.815 27.19625 85.75 27.8125 C90.67223452 31.12554246 96.08235367 35.24706101 98 41 C99.14429465 42.10961905 100.2887065 43.2191174 101.43359375 44.328125 C107.23400417 50.51908675 111.68919464 58.00411229 116.25 65.125 C125.02092567 78.79651606 134.2578063 91.80615851 145 104 C145.63550781 104.73476563 146.27101563 105.46953125 146.92578125 106.2265625 C151.54067162 111.55225208 156.27811198 116.76935637 161 122 C163.2542784 124.50388708 165.50759586 127.00849104 167.75390625 129.51953125 C169.22080903 131.13950215 170.70718512 132.74210784 172.21484375 134.32421875 C190.90116641 154.19280435 201.80668552 179.53915787 201.1796875 206.94140625 C200.65321997 221.08778389 195.96471117 237.19959223 188 249 C187.47277344 249.80824219 186.94554687 250.61648438 186.40234375 251.44921875 C177.90118015 263.81290679 167.47744615 274.31794563 155.5234375 283.30859375 C149.94438698 287.51081319 144.72545777 292.14847658 139.46142578 296.73388672 C138.27436612 297.76230158 137.07457047 298.77600238 135.87109375 299.78515625 C114.30853988 317.99456999 98.77992457 340.48510689 84.48120117 364.55688477 C77.75999059 375.82995796 70.97111793 386.39302472 62 396 C61.27683594 396.80308594 60.55367187 397.60617187 59.80859375 398.43359375 C45.63649669 413.4930781 25.02536484 425.31516644 4.09545898 426.11035156 C0.7921768 426.17024973 -2.50869318 426.18560453 -5.8125 426.1875 C-6.92431641 426.19974609 -8.03613281 426.21199219 -9.18164062 426.22460938 C-38.83917383 426.27667058 -60.7010295 411.05222197 -81 391 C-81.80179687 390.23429687 -82.60359375 389.46859375 -83.4296875 388.6796875 C-85 387 -85 387 -85.4375 385 C-85.84452946 382.75743717 -85.84452946 382.75743717 -88.25 381.375 C-91.65901324 378.4308522 -92.96825489 375.40305537 -94.7890625 371.33984375 C-95.83648174 369.01752525 -95.83648174 369.01752525 -97.3984375 367.62890625 C-99.34644493 365.64764015 -100.50778332 363.40205694 -101.84423828 360.984375 C-103.97244972 357.33036094 -106.47660748 353.93480379 -108.9375 350.5 C-109.70610352 349.41912109 -109.70610352 349.41912109 -110.49023438 348.31640625 C-111.50345975 346.89248343 -112.51871378 345.47000166 -113.53613281 344.04907227 C-114.49880834 342.7015513 -115.45664345 341.35055682 -116.40917969 339.99584961 C-119.02440818 336.28514384 -121.7527577 333.16992701 -125 330 C-126.17603792 328.67492502 -127.34205283 327.34091284 -128.5 326 C-134.70032821 318.87028641 -141.59962711 311.85610382 -149.30859375 306.3515625 C-149.86675781 305.90554688 -150.42492187 305.45953125 -151 305 C-151 304.34 -151 303.68 -151 303 C-151.84111328 302.64808594 -151.84111328 302.64808594 -152.69921875 302.2890625 C-157.55768908 299.56699933 -161.18327533 294.99479892 -165 291 C-165.61230469 290.36964844 -166.22460938 289.73929688 -166.85546875 289.08984375 C-175.19994291 280.07146907 -181.92669851 269.14559284 -187 258 C-187.34417969 257.35933594 -187.68835938 256.71867187 -188.04296875 256.05859375 C-194.18341823 244.03648769 -195.79362571 229.26942185 -195 216 C-194.95617187 214.90171875 -194.91234375 213.8034375 -194.8671875 212.671875 C-194.17276713 199.93077088 -190.73495627 189.35257328 -185 178 C-184.60941406 177.20851563 -184.21882813 176.41703125 -183.81640625 175.6015625 C-173.92166649 156.63379146 -156.44566927 139.75803291 -140.23828125 125.9453125 C-121.31128578 109.49567246 -105.42463548 91.5441663 -92.07421875 70.296875 C-88.82085156 65.12579796 -85.43334678 60.05284997 -82 55 C-81.27554688 53.91203125 -80.55109375 52.8240625 -79.8046875 51.703125 C-70.88501432 38.56248486 -60.01972565 26.19700827 -47 17 C-45.86498047 16.19369141 -45.86498047 16.19369141 -44.70703125 15.37109375 C-42.50253185 13.85716043 -40.26807859 12.41654019 -38 11 C-36.97519531 10.33677734 -36.97519531 10.33677734 -35.9296875 9.66015625 C-28.67957685 5.25925882 -20.54854737 3.09542137 -12.26953125 1.4609375 C-9.82941902 1.02486359 -9.82941902 1.02486359 -6.9375 -0.125 C-3.91909746 -1.02409863 -2.88962124 -0.92880683 0 0 Z " fill="#78BEDB" transform="translate(491,278)"/>
<path d="M0 0 C1.125 1.5625 1.125 1.5625 2 4 C1.17118585 7.93686719 0.23639141 10.64541289 -2 14 C-1.34 14 -0.68 14 0 14 C0.6875 15.6875 0.6875 15.6875 1 18 C0.54238281 18.74636719 0.08476563 19.49273437 -0.38671875 20.26171875 C-2.63633399 24.08007294 -3.25499274 27.95538202 -4.15625 32.2578125 C-5.05719834 35.18589462 -5.85871544 35.94501406 -8 38 C-8.83349449 39.86913215 -9.59794627 41.76974584 -10.3125 43.6875 C-13.4330553 51.44217336 -18.06268427 57.10815912 -23.60546875 63.26171875 C-25.09972894 65.03031974 -25.09972894 65.03031974 -26.34301758 67.36157227 C-27.98993514 69.98397364 -29.65882177 71.8372066 -31.90625 73.953125 C-32.65003906 74.654375 -33.39382813 75.355625 -34.16015625 76.078125 C-34.93230469 76.79484375 -35.70445312 77.5115625 -36.5 78.25 C-37.27214844 78.9821875 -38.04429687 79.714375 -38.83984375 80.46875 C-44.61183186 85.87061062 -44.61183186 85.87061062 -48 87 C-48.29519531 87.598125 -48.59039062 88.19625 -48.89453125 88.8125 C-51.6631254 94.29099019 -58.50396713 98.3227631 -63.8125 101.1875 C-67.19199918 103.10917601 -69.32816651 105.19457484 -72 108 C-73.21501523 109.11971992 -74.44482526 110.22355822 -75.6875 111.3125 C-76.26886719 111.82425781 -76.85023438 112.33601563 -77.44921875 112.86328125 C-79 114 -79 114 -81 114 C-81.25136719 114.6084375 -81.50273437 115.216875 -81.76171875 115.84375 C-83.18650006 118.3247572 -84.34644285 119.10429653 -86.8125 120.5 C-90.11435612 122.45136722 -93.05865391 124.52307698 -96 127 C-97.5159375 128.2065625 -97.5159375 128.2065625 -99.0625 129.4375 C-102.0299375 131.85576015 -102.0299375 131.85576015 -104.0625 134.6875 C-106.25092956 137.29949658 -107.89667575 137.77500359 -111 139 C-111.6921306 140.32029446 -112.35583068 141.65565328 -113 143 C-114.96522534 145.47898168 -117.15179943 147.75311637 -119.3125 150.0625 C-119.88162109 150.68705078 -120.45074219 151.31160156 -121.03710938 151.95507812 C-123.49579011 154.60006532 -125.59353835 156.75939339 -128.71875 158.609375 C-131.61069501 160.37227299 -132.59444089 162.22774138 -134.1875 165.1875 C-135.07312342 166.82087935 -135.99867474 168.4348787 -137 170 C-137.66 170 -138.32 170 -139 170 C-139.12117188 170.62648438 -139.24234375 171.25296875 -139.3671875 171.8984375 C-139.53476562 172.71570313 -139.70234375 173.53296875 -139.875 174.375 C-140.03742188 175.18710937 -140.19984375 175.99921875 -140.3671875 176.8359375 C-141 179 -141 179 -143 181 C-143.70611571 182.65034021 -144.36944209 184.31933973 -145 186 C-145.46019531 187.04607422 -145.46019531 187.04607422 -145.9296875 188.11328125 C-151.30383262 200.61594117 -153.4423867 212.65700419 -153.67260742 226.16918945 C-153.6904126 227.02859131 -153.70821777 227.88799316 -153.7265625 228.7734375 C-153.73252441 229.54091309 -153.73848633 230.30838867 -153.74462891 231.09912109 C-154 233 -154 233 -156 235 C-156.33 233.35 -156.66 231.7 -157 230 C-157.33 230 -157.66 230 -158 230 C-158.144375 228.906875 -158.28875 227.81375 -158.4375 226.6875 C-158.88288104 223.06877013 -158.88288104 223.06877013 -160 220 C-159.67 219.67 -159.34 219.34 -159 219 C-159.00589823 217.10371802 -159.05507375 215.20750144 -159.125 213.3125 C-159.17298616 208.20797243 -158.43844358 205.50174199 -156 201 C-155.66426191 199.11147322 -155.37818932 197.21385442 -155.125 195.3125 C-154.03932503 187.9773515 -151.30897883 181.70904423 -147.40234375 175.43359375 C-146.10642735 173.18469147 -145.60053688 171.48289198 -145 169 C-143.87890625 167.078125 -143.87890625 167.078125 -142.5625 165.25 C-142.13066406 164.63640625 -141.69882812 164.0228125 -141.25390625 163.390625 C-140.84011719 162.93171875 -140.42632812 162.4728125 -140 162 C-139.34 162 -138.68 162 -138 162 C-137.814375 161.34 -137.62875 160.68 -137.4375 160 C-135.74377943 156.46527881 -133.57038048 154.01990011 -130.9453125 151.13671875 C-128.37655596 148.31521308 -125.93512933 145.38962758 -123.48046875 142.46875 C-122 141 -122 141 -120 141 C-119.67 139.68 -119.34 138.36 -119 137 C-118.34 137 -117.68 137 -117 137 C-117 136.34 -117 135.68 -117 135 C-116.34 135 -115.68 135 -115 135 C-114.67 134.01 -114.34 133.02 -114 132 C-113.01 132 -112.02 132 -111 132 C-110.67 131.01 -110.34 130.02 -110 129 C-107.65763093 126.07203867 -105.15268442 124.4976699 -101.875 122.8125 C-96.98321386 120.22510898 -93.24093428 116.80089517 -89.26171875 112.98828125 C-87 111 -87 111 -85.01953125 110.04296875 C-82.15048689 108.56127659 -80.27233872 106.27918312 -78 104 C-76.19871173 102.74439612 -74.36311503 101.53688767 -72.5 100.375 C-62.92761886 94.12701723 -54.29990391 86.71017569 -46.48828125 78.36328125 C-45 77 -45 77 -43 77 C-42.731875 76.360625 -42.46375 75.72125 -42.1875 75.0625 C-41 73 -41 73 -38 72 C-37.690625 71.195625 -37.38125 70.39125 -37.0625 69.5625 C-36 67 -36 67 -34 66.0625 C-31.01383365 64.47609913 -31.03004285 62.15071931 -30 59 C-28.35830472 56.97945196 -26.69088222 54.97956942 -25 53 C-23.96459289 51.01809886 -22.97032793 49.01456291 -22 47 C-21.35725354 45.74190775 -20.71126108 44.48547002 -20.0625 43.23046875 C-15.25150224 33.91278429 -15.25150224 33.91278429 -11.6484375 24.0859375 C-10.61294943 20.75490963 -9.22131917 17.5715013 -7.8671875 14.359375 C-6.91968688 11.98701051 -6.91968688 11.98701051 -6.5078125 9.328125 C-6 7 -6 7 -4 5 C-3.01 5 -2.02 5 -1 5 C-0.67 3.35 -0.34 1.7 0 0 Z M-158 220 C-157 222 -157 222 -157 222 Z " fill="#8CCCE4" transform="translate(551,349)"/>
<path d="M0 0 C0.495 0.33 0.99 0.66 1.5 1 C1.83 0.34 2.16 -0.32 2.5 -1 C5.47 -1 8.44 -1 11.5 -1 C11.5 8.9 11.5 18.8 11.5 29 C8.53 29 5.56 29 2.5 29 C2.17 28.34 1.84 27.68 1.5 27 C0.51 27.66 -0.48 28.32 -1.5 29 C-6.21185778 29.68681317 -10.23650993 29.69895195 -14.4375 27.375 C-18.82054239 22.32786028 -20.0697766 18.05484828 -19.8515625 11.46875 C-19.15196397 6.55601369 -17.03466958 3.32152102 -13.25 0.0625 C-8.78496868 -1.66262574 -4.52958646 -1.81183458 0 0 Z " fill="#070707" transform="translate(933.5,473)"/>
<path d="M0 0 C0.99 0.495 0.99 0.495 2 1 C-0.97424678 5.00379374 -4.05323863 7.99702939 -8 11 C-8.66 11 -9.32 11 -10 11 C-10.25136719 11.6084375 -10.50273437 12.216875 -10.76171875 12.84375 C-12.18650006 15.3247572 -13.34644285 16.10429653 -15.8125 17.5 C-19.11435612 19.45136722 -22.05865391 21.52307698 -25 24 C-26.010625 24.804375 -27.02125 25.60875 -28.0625 26.4375 C-31.0299375 28.85576015 -31.0299375 28.85576015 -33.0625 31.6875 C-35.25092956 34.29949658 -36.89667575 34.77500359 -40 36 C-40.6921306 37.32029446 -41.35583068 38.65565328 -42 40 C-43.96522534 42.47898168 -46.15179943 44.75311637 -48.3125 47.0625 C-48.88162109 47.68705078 -49.45074219 48.31160156 -50.03710938 48.95507812 C-52.49579011 51.60006532 -54.59353835 53.75939339 -57.71875 55.609375 C-60.61069501 57.37227299 -61.59444089 59.22774138 -63.1875 62.1875 C-64.07312342 63.82087935 -64.99867474 65.4348787 -66 67 C-66.66 67 -67.32 67 -68 67 C-68.12117188 67.62648438 -68.24234375 68.25296875 -68.3671875 68.8984375 C-68.53476562 69.71570313 -68.70234375 70.53296875 -68.875 71.375 C-69.03742188 72.18710937 -69.19984375 72.99921875 -69.3671875 73.8359375 C-70 76 -70 76 -72 78 C-72.70611571 79.65034021 -73.36944209 81.31933973 -74 83 C-74.30679687 83.69738281 -74.61359375 84.39476562 -74.9296875 85.11328125 C-80.30383262 97.61594117 -82.4423867 109.65700419 -82.67260742 123.16918945 C-82.6904126 124.02859131 -82.70821777 124.88799316 -82.7265625 125.7734375 C-82.73252441 126.54091309 -82.73848633 127.30838867 -82.74462891 128.09912109 C-83 130 -83 130 -85 132 C-85.33 130.35 -85.66 128.7 -86 127 C-86.33 127 -86.66 127 -87 127 C-87.144375 125.906875 -87.28875 124.81375 -87.4375 123.6875 C-87.88288104 120.06877013 -87.88288104 120.06877013 -89 117 C-88.505 116.505 -88.505 116.505 -88 116 C-88.00589823 114.10371802 -88.05507375 112.20750144 -88.125 110.3125 C-88.17298616 105.20797243 -87.43844358 102.50174199 -85 98 C-84.66426191 96.11147322 -84.37818932 94.21385442 -84.125 92.3125 C-83.03932503 84.9773515 -80.30897883 78.70904423 -76.40234375 72.43359375 C-75.10642735 70.18469147 -74.60053688 68.48289198 -74 66 C-72.87890625 64.078125 -72.87890625 64.078125 -71.5625 62.25 C-70.91474609 61.32960938 -70.91474609 61.32960938 -70.25390625 60.390625 C-69.84011719 59.93171875 -69.42632812 59.4728125 -69 59 C-68.34 59 -67.68 59 -67 59 C-66.814375 58.34 -66.62875 57.68 -66.4375 57 C-64.7412904 53.46008431 -62.56345049 51.01182819 -59.93359375 48.125 C-57.46153676 45.40823434 -55.12187574 42.58557254 -52.7734375 39.76171875 C-50.70767509 37.70960675 -48.49971874 36.48631925 -46 35 C-44.30079432 33.55833018 -42.63458445 32.07704465 -41 30.5625 C-36.25480699 26.18061083 -31.59075909 22.25044133 -26 19 C-20.17471955 15.53142014 -15.0536389 11.73876952 -9.9921875 7.19921875 C-8.94417969 6.26529297 -8.94417969 6.26529297 -7.875 5.3125 C-7.23304688 4.73113281 -6.59109375 4.14976562 -5.9296875 3.55078125 C-4.00589423 2.00473686 -2.30077578 0.89262463 0 0 Z M-87 117 C-86 119 -86 119 -86 119 Z " fill="#ABDCED" transform="translate(480,452)"/>
<path d="M0 0 C3.96 0 7.92 0 12 0 C13.85342368 5.10791129 15.70478283 10.21656415 17.55419922 15.32592773 C18.18415989 17.06539323 18.81469277 18.80465161 19.44580078 20.54370117 C20.35077616 23.03771104 21.25371759 25.53244895 22.15625 28.02734375 C22.44060913 28.80963852 22.72496826 29.59193329 23.01794434 30.39793396 C25 35.88612829 25 35.88612829 25 37 C21.7 37 18.4 37 15 37 C14.01 33.535 14.01 33.535 13 30 C8.38 30.33 3.76 30.66 -1 31 C-1.66 32.98 -2.32 34.96 -3 37 C-6.3 37 -9.6 37 -13 37 C-4.79510703 11.98776758 -4.79510703 11.98776758 0 0 Z " fill="#070707" transform="translate(1012,465)"/>
<path d="M0 0 C2.97 0 5.94 0 9 0 C9.33 4.62 9.66 9.24 10 14 C10.67804687 12.989375 11.35609375 11.97875 12.0546875 10.9375 C19.40374865 0.50185974 19.40374865 0.50185974 23.95703125 -0.9296875 C26.44386559 -0.87987966 28.60401956 -0.65486667 31 0 C29.25477062 4.05214179 26.5771843 7.30603961 23.875 10.75 C23.40707031 11.35199219 22.93914063 11.95398438 22.45703125 12.57421875 C21.30774993 14.05186616 20.15428765 15.52626005 19 17 C20.28423573 19.74294779 21.69030033 22.03664416 23.6015625 24.3828125 C24.09140625 24.99253906 24.58125 25.60226562 25.0859375 26.23046875 C26.11890885 27.50201977 27.15277527 28.77284414 28.1875 30.04296875 C32 34.79346478 32 34.79346478 32 37 C28.10404482 37.78647319 24.8702472 37.99989677 21 37 C17.27004187 33.40677054 14.69696479 29.42776417 12 25 C11.34 24.01 10.68 23.02 10 22 C9.67 26.95 9.34 31.9 9 37 C6.03 37 3.06 37 0 37 C0 24.79 0 12.58 0 0 Z " fill="#040404" transform="translate(840,465)"/>
<path d="M0 0 C3.3 0 6.6 0 10 0 C11.98 5.28 13.96 10.56 16 16 C18.10850329 12.83724506 19.28830876 9.86528462 20.625 6.3125 C21.07101562 5.13300781 21.51703125 3.95351563 21.9765625 2.73828125 C22.31429687 1.83464844 22.65203125 0.93101562 23 0 C26.3 0 29.6 0 33 0 C31.07287204 5.98776973 28.93259542 11.7686963 26.42578125 17.53515625 C26.09708542 18.29928329 25.76838959 19.06341034 25.42973328 19.85069275 C24.3940908 22.25612702 23.3533965 24.65933534 22.3125 27.0625 C21.60317815 28.70753682 20.8941908 30.35271791 20.18554688 31.99804688 C18.46088756 36.00037356 16.73169865 40.00071431 15 44 C11.7 44 8.4 44 5 44 C6.04501654 40.70417862 7.16042281 37.67321279 8.6875 34.5625 C11.52411305 26.86312171 7.62878054 20.29720757 4.4375 13.25 C3.59797179 11.38240006 2.76310925 9.51269369 1.93359375 7.640625 C1.56290771 6.82110352 1.19222168 6.00158203 0.81030273 5.15722656 C0 3 0 3 0 0 Z " fill="#090909" transform="translate(965,472)"/>
<path d="M0 0 C0.66 0.33 1.32 0.66 2 1 C1.01 1.66 0.02 2.32 -1 3 C-0.67 2.01 -0.34 1.02 0 0 Z M-5 6 C-5 9 -5 9 -6.25 10.578125 C-7.11625 11.40570313 -7.11625 11.40570313 -8 12.25 C-8.96679688 13.17619141 -8.96679688 13.17619141 -9.953125 14.12109375 C-12.51607396 16.47372438 -15.12002977 18.77077463 -17.7578125 21.0390625 C-21.33895499 24.17100245 -24.80736491 27.4262122 -28.2890625 30.66796875 C-31.05957959 33.05125218 -33.94581073 34.99969201 -37 37 C-38.7803932 38.46515255 -40.48148741 39.9892584 -42.19140625 41.53515625 C-44 43 -44 43 -46.3359375 44.3984375 C-56.25525062 50.36166093 -65.1907891 58.52359478 -74 66 C-74.72960937 66.60457031 -75.45921875 67.20914063 -76.2109375 67.83203125 C-83.89157228 74.31351554 -90.30191764 81.91484972 -96.3671875 89.8984375 C-98.38500769 92.49553622 -100.5370947 94.95211877 -102.73828125 97.39453125 C-104.12957915 99.16488245 -105.02325169 100.97673565 -106 103 C-106.7734375 103.99 -106.7734375 103.99 -107.5625 105 C-109.10097158 106.88075738 -109.10097158 106.88075738 -109.5 109 C-110.66320837 113.65283349 -114.67202566 116.76197091 -118 120 C-118.125 117.125 -118.125 117.125 -118 114 C-117.01 113.01 -117.01 113.01 -116 112 C-115.31867549 110.33927151 -114.65257873 108.672233 -114 107 C-113.34 106.01 -112.68 105.02 -112 104 C-111.71125 102.865625 -111.4225 101.73125 -111.125 100.5625 C-109.91582084 96.73343267 -108.84636043 95.67892747 -106 93 C-105.4225 91.88625 -104.845 90.7725 -104.25 89.625 C-102.67686922 86.73991459 -101.13587669 85.17553401 -98.4375 83.3125 C-93.38988874 79.81799989 -89.56910887 75.36421139 -85.515625 70.8046875 C-83.40714213 68.45392554 -81.25340864 66.20979428 -79 64 C-78.236875 63.21625 -77.47375 62.4325 -76.6875 61.625 C-69.559794 54.6630546 -61.7792697 48.08989006 -53.125 43.125 C-48.16038045 40.2572384 -43.97664226 36.73006174 -39.609375 33.03515625 C-36.76432727 30.81618938 -33.97746193 29.41573658 -30.70703125 27.95703125 C-27.71600826 26.28014193 -26.07825296 23.69611195 -24 21 C-22.34808509 19.64843325 -20.68477344 18.31037934 -19 17 C-18.67 16.34 -18.34 15.68 -18 15 C-16.948125 14.5875 -15.89625 14.175 -14.8125 13.75 C-10.52399847 12.03991571 -8.08487218 9.38583532 -5 6 Z " fill="#70B8D7" transform="translate(522,422)"/>
<path d="M0 0 C2.97 0 5.94 0 9 0 C9.33 1.32 9.66 2.64 10 4 C10.7425 3.34 11.485 2.68 12.25 2 C15 0 15 0 19 0 C19 3.3 19 6.6 19 10 C14.545 10.495 14.545 10.495 10 11 C9.67 17.27 9.34 23.54 9 30 C6.03 30 3.06 30 0 30 C0 20.1 0 10.2 0 0 Z " fill="#090909" transform="translate(893,472)"/>
<path d="M0 0 C2.97 0 5.94 0 9 0 C9 12.87 9 25.74 9 39 C6.03 39 3.06 39 0 39 C0 26.13 0 13.26 0 0 Z " fill="#020202" transform="translate(952,463)"/>
<path d="M0 0 C0.66 0.66 1.32 1.32 2 2 C2.33 1.34 2.66 0.68 3 0 C3.99 0 4.98 0 6 0 C6 5.94 6 11.88 6 18 C5.01 18 4.02 18 3 18 C2.67 17.34 2.34 16.68 2 16 C1.34 16.66 0.68 17.32 0 18 C-3.08542024 18.40464528 -5.04000327 18.6395404 -8 18 C-11.56352884 14.95615245 -12.81458415 13.05687034 -13.625 8.4375 C-13 5 -13 5 -11 2.0625 C-6.91563693 -0.74549961 -4.87833311 -0.55980872 0 0 Z " fill="#242424" transform="translate(1249,553)"/>
<path d="M0 0 C0.66 0.66 1.32 1.32 2 2 C2.33 1.34 2.66 0.68 3 0 C3.99 0 4.98 0 6 0 C6 5.94 6 11.88 6 18 C5.01 18 4.02 18 3 18 C2.67 17.34 2.34 16.68 2 16 C1.34 16.66 0.68 17.32 0 18 C-3.08542024 18.40464528 -5.04000327 18.6395404 -8 18 C-11.56352884 14.95615245 -12.81458415 13.05687034 -13.625 8.4375 C-13 5 -13 5 -11 2.0625 C-6.91563693 -0.74549961 -4.87833311 -0.55980872 0 0 Z " fill="#242424" transform="translate(913,553)"/>
<path d="M0 0 C3.3 0 6.6 0 10 0 C10 9.9 10 19.8 10 30 C6.7 30 3.4 30 0 30 C0 20.1 0 10.2 0 0 Z " fill="#191919" transform="translate(877,472)"/>
<path d="M0 0 C0.66 0 1.32 0 2 0 C2.99 0 3.98 0 5 0 C5 5.94 5 11.88 5 18 C3.68 17.67 2.36 17.34 1 17 C0.34 17.33 -0.32 17.66 -1 18 C-7.26519337 18.5801105 -7.26519337 18.5801105 -10.375 16.125 C-13.27793217 12.32885793 -13.4051942 9.78129155 -13 5 C-10.01221148 -1.10548089 -6.03907783 -0.52463031 0 0 Z " fill="#161616" transform="translate(1407,553)"/>
<path d="M0 0 C0.66 0 1.32 0 2 0 C2.99 0 3.98 0 5 0 C5 5.94 5 11.88 5 18 C3.68 17.67 2.36 17.34 1 17 C0.34 17.33 -0.32 17.66 -1 18 C-7.26519337 18.5801105 -7.26519337 18.5801105 -10.375 16.125 C-13.27793217 12.32885793 -13.4051942 9.78129155 -13 5 C-10.01221148 -1.10548089 -6.03907783 -0.52463031 0 0 Z " fill="#161616" transform="translate(1025,553)"/>
<path d="M0 0 C0.66 0.33 1.32 0.66 2 1 C1.01 1.66 0.02 2.32 -1 3 C-0.67 2.01 -0.34 1.02 0 0 Z M-5 6 C-5 9 -5 9 -6.25 10.578125 C-7.11625 11.40570313 -7.11625 11.40570313 -8 12.25 C-8.96679688 13.17619141 -8.96679688 13.17619141 -9.953125 14.12109375 C-12.51607396 16.47372438 -15.12002977 18.77077463 -17.7578125 21.0390625 C-21.33895499 24.17100245 -24.80736491 27.4262122 -28.2890625 30.66796875 C-31.05910757 33.05084614 -33.95151747 34.99236238 -37 37 C-38.84711332 38.59604937 -40.61676447 40.2453419 -42.38671875 41.92578125 C-42.91910156 42.28027344 -43.45148438 42.63476562 -44 43 C-44.99 42.67 -45.98 42.34 -47 42 C-46.24074219 41.31292969 -45.48148437 40.62585938 -44.69921875 39.91796875 C-43.69527617 39.00785258 -42.69137193 38.0976941 -41.6875 37.1875 C-41.18798828 36.73568359 -40.68847656 36.28386719 -40.17382812 35.81835938 C-38.17322008 34.00323817 -36.18778778 32.19166413 -34.296875 30.26171875 C-33 29 -33 29 -30.5625 27.625 C-27.64307448 25.77365699 -26.11730685 23.7127994 -24 21 C-22.34466005 19.65263027 -20.67987227 18.31665664 -19 17 C-18.67 16.34 -18.34 15.68 -18 15 C-16.948125 14.5875 -15.89625 14.175 -14.8125 13.75 C-10.52399847 12.03991571 -8.08487218 9.38583532 -5 6 Z M-49 43 C-48.34 43.33 -47.68 43.66 -47 44 C-51.36373513 47.85632407 -55.86947028 51.46999681 -60.5 55 C-65.12899639 58.53355009 -69.63431795 62.14667184 -74 66 C-74.62003906 66.51691406 -75.24007813 67.03382813 -75.87890625 67.56640625 C-83.72277748 74.18227415 -90.32661872 81.8344862 -96.39453125 90.08984375 C-98.08289281 92.0986243 -99.84828274 93.51106766 -102 95 C-100.72648769 90.79740937 -98.59399913 88.17633686 -95.72265625 84.98046875 C-93.15077267 82.02367742 -90.8483301 78.8697066 -88.515625 75.72265625 C-88.01546875 75.15417969 -87.5153125 74.58570313 -87 74 C-86.34 74 -85.68 74 -85 74 C-84.77828125 73.43152344 -84.5565625 72.86304688 -84.328125 72.27734375 C-82.59517144 69.30583809 -80.44708478 67.68848076 -77.75 65.5625 C-76.75871094 64.77230469 -75.76742188 63.98210937 -74.74609375 63.16796875 C-73.83988281 62.45253906 -72.93367188 61.73710937 -72 61 C-68.60763058 58.23391417 -65.28975446 55.38705382 -62 52.5 C-60.66714039 51.33279216 -59.33382798 50.16610111 -58 49 C-57.13955078 48.24589844 -57.13955078 48.24589844 -56.26171875 47.4765625 C-53.83718514 45.394953 -52.0661224 44.0220408 -49 43 Z " fill="#60ACCD" transform="translate(522,422)"/>
<path d="M0 0 C2.46111244 0.62751691 3.50724798 1.32353129 5.22265625 3.17578125 C7.33042857 6.84738464 7.95164849 8.41743289 7.16015625 12.55078125 C5.36021851 15.25068787 4.07638325 17.09266775 1.16015625 18.55078125 C-1.8512018 18.89634693 -3.93345546 19.12872462 -6.83984375 18.55078125 C-10.40337259 15.5069337 -11.6544279 13.60765159 -12.46484375 8.98828125 C-11.83984375 5.55078125 -11.83984375 5.55078125 -9.90234375 2.61328125 C-6.33966593 0.2139268 -4.22672069 -0.24697032 0 0 Z " fill="#212121" transform="translate(1477.83984375,552.44921875)"/>
<path d="M0 0 C2.46111244 0.62751691 3.50724798 1.32353129 5.22265625 3.17578125 C7.33042857 6.84738464 7.95164849 8.41743289 7.16015625 12.55078125 C5.36021851 15.25068787 4.07638325 17.09266775 1.16015625 18.55078125 C-1.8512018 18.89634693 -3.93345546 19.12872462 -6.83984375 18.55078125 C-10.40337259 15.5069337 -11.6544279 13.60765159 -12.46484375 8.98828125 C-11.83984375 5.55078125 -11.83984375 5.55078125 -9.90234375 2.61328125 C-6.33966593 0.2139268 -4.22672069 -0.24697032 0 0 Z " fill="#212121" transform="translate(1207.83984375,552.44921875)"/>
<path d="M0 0 C2.46111244 0.62751691 3.50724798 1.32353129 5.22265625 3.17578125 C7.33042857 6.84738464 7.95164849 8.41743289 7.16015625 12.55078125 C5.36021851 15.25068787 4.07638325 17.09266775 1.16015625 18.55078125 C-1.8512018 18.89634693 -3.93345546 19.12872462 -6.83984375 18.55078125 C-10.40337259 15.5069337 -11.6544279 13.60765159 -12.46484375 8.98828125 C-11.83984375 5.55078125 -11.83984375 5.55078125 -9.90234375 2.61328125 C-6.33966593 0.2139268 -4.22672069 -0.24697032 0 0 Z " fill="#212121" transform="translate(967.83984375,552.44921875)"/>
<path d="M0 0 C1 2 1 2 0.1875 5.5 C-1 9 -1 9 -3 11 C-3.70611571 12.65034021 -4.36944209 14.31933973 -5 16 C-5.30679687 16.69738281 -5.61359375 17.39476562 -5.9296875 18.11328125 C-11.30383262 30.61594117 -13.4423867 42.65700419 -13.67260742 56.16918945 C-13.6904126 57.02859131 -13.70821777 57.88799316 -13.7265625 58.7734375 C-13.73252441 59.54091309 -13.73848633 60.30838867 -13.74462891 61.09912109 C-14 63 -14 63 -16 65 C-16.33 63.35 -16.66 61.7 -17 60 C-17.33 60 -17.66 60 -18 60 C-18.144375 58.906875 -18.28875 57.81375 -18.4375 56.6875 C-18.88288104 53.06877013 -18.88288104 53.06877013 -20 50 C-19.505 49.505 -19.505 49.505 -19 49 C-19.00589823 47.10371802 -19.05507375 45.20750144 -19.125 43.3125 C-19.16657343 38.27617615 -18.62216108 35.37026847 -16 31 C-15.53626101 29.63362619 -15.10144312 28.25727434 -14.6875 26.875 C-13.10597454 21.911702 -10.80070377 17.41051413 -8.40234375 12.796875 C-6.97074437 10.05976016 -6.97074437 10.05976016 -5.98046875 7.31640625 C-4.64339162 4.15749495 -2.49692226 2.29979682 0 0 Z M-18 50 C-17 52 -17 52 -17 52 Z " fill="#91D0E6" transform="translate(411,519)"/>
<path d="M0 0 C2.97 0 5.94 0 9 0 C9 9.9 9 19.8 9 30 C6.03 30 3.06 30 0 30 C0 20.1 0 10.2 0 0 Z " fill="#040404" transform="translate(1041,472)"/>
<path d="M0 0 C0.99 0 1.98 0 3 0 C4.65 5.94 6.3 11.88 8 18 C8.45375 16.14375 8.9075 14.2875 9.375 12.375 C10.42097228 8.18119645 11.53048615 4.06942297 13 0 C14.32 0 15.64 0 17 0 C17.67364661 2.08108685 18.33866798 4.1649671 19 6.25 C19.37125 7.41015625 19.7425 8.5703125 20.125 9.765625 C21 13 21 13 21 17 C21.66 17 22.32 17 23 17 C23.20496094 15.94039062 23.40992188 14.88078125 23.62109375 13.7890625 C23.89307666 12.40101178 24.16522044 11.01299256 24.4375 9.625 C24.57220703 8.92632813 24.70691406 8.22765625 24.84570312 7.5078125 C25.88671875 2.2265625 25.88671875 2.2265625 27 0 C27.99 0 28.98 0 30 0 C28.80398501 7.99441599 26.73311633 15.397691 24 23 C22.68 23 21.36 23 20 23 C19.33011414 20.70922959 18.66396838 18.41748541 18 16.125 C17.80921875 15.47402344 17.6184375 14.82304688 17.421875 14.15234375 C16 9.2265625 16 9.2265625 16 7 C15.34 7 14.68 7 14 7 C12.68 12.28 11.36 17.56 10 23 C8.35 22.67 6.7 22.34 5 22 C4.1602972 19.08503169 3.32803997 16.1682814 2.5 13.25 C2.26152344 12.425 2.02304688 11.6 1.77734375 10.75 C1.55175781 9.95078125 1.32617188 9.1515625 1.09375 8.328125 C0.88427734 7.5949707 0.67480469 6.86181641 0.45898438 6.10644531 C0 4 0 4 0 0 Z " fill="#1D1D1D" transform="translate(1083,548)"/>
<path d="M0 0 C0.99 0 1.98 0 3 0 C4.65 5.94 6.3 11.88 8 18 C8.45375 16.14375 8.9075 14.2875 9.375 12.375 C10.42097228 8.18119645 11.53048615 4.06942297 13 0 C14.32 0 15.64 0 17 0 C17.67364661 2.08108685 18.33866798 4.1649671 19 6.25 C19.37125 7.41015625 19.7425 8.5703125 20.125 9.765625 C21 13 21 13 21 17 C21.66 17 22.32 17 23 17 C23.20496094 15.94039062 23.40992188 14.88078125 23.62109375 13.7890625 C23.89307666 12.40101178 24.16522044 11.01299256 24.4375 9.625 C24.57220703 8.92632813 24.70691406 8.22765625 24.84570312 7.5078125 C25.88671875 2.2265625 25.88671875 2.2265625 27 0 C27.99 0 28.98 0 30 0 C28.80398501 7.99441599 26.73311633 15.397691 24 23 C22.68 23 21.36 23 20 23 C19.33011414 20.70922959 18.66396838 18.41748541 18 16.125 C17.80921875 15.47402344 17.6184375 14.82304688 17.421875 14.15234375 C16 9.2265625 16 9.2265625 16 7 C15.34 7 14.68 7 14 7 C12.68 12.28 11.36 17.56 10 23 C8.35 22.67 6.7 22.34 5 22 C4.1602972 19.08503169 3.32803997 16.1682814 2.5 13.25 C2.26152344 12.425 2.02304687 11.6 1.77734375 10.75 C1.55175781 9.95078125 1.32617188 9.1515625 1.09375 8.328125 C0.88427734 7.5949707 0.67480469 6.86181641 0.45898438 6.10644531 C0 4 0 4 0 0 Z " fill="#1D1D1D" transform="translate(838,548)"/>
<path d="M0 0 C1.32 0.33 2.64 0.66 4 1 C4.50588147 2.91512272 5.00448391 4.83216922 5.5 6.75 C5.7784375 7.81734375 6.056875 8.8846875 6.34375 9.984375 C7 13 7 13 7 17 C7.66 17 8.32 17 9 17 C9.12117188 16.35933594 9.24234375 15.71867188 9.3671875 15.05859375 C10.35679227 9.95071067 11.48510951 4.97749731 13 0 C14.65 0.33 16.3 0.66 18 1 C19.32 6.28 20.64 11.56 22 17 C23.54139849 13.14650377 24.65812216 9.68685832 25.625 5.6875 C25.88539062 4.61886719 26.14578125 3.55023437 26.4140625 2.44921875 C26.60742188 1.64097656 26.80078125 0.83273437 27 0 C27.99 0 28.98 0 30 0 C29.39153718 4.93742226 28.39955177 9.52212245 27 14.3125 C26.4740625 16.13201172 26.4740625 16.13201172 25.9375 17.98828125 C25 21 25 21 24 23 C22.68 23 21.36 23 20 23 C18.35 17.39 16.7 11.78 15 6 C13.35 11.61 11.7 17.22 10 23 C8.68 23 7.36 23 6 23 C3.76543688 15.37428218 1.61088355 7.78593716 0 0 Z " fill="#131313" transform="translate(1307,548)"/>
<path d="M0 0 C0.99 0.495 0.99 0.495 2 1 C1.67 1.66 1.34 2.32 1 3 C0.34 3 -0.32 3 -1 3 C-1.33 3.99 -1.66 4.98 -2 6 C-2.66 6 -3.32 6 -4 6 C-4.33 6.99 -4.66 7.98 -5 9 C-5.66 9 -6.32 9 -7 9 C-7.03738281 9.55816406 -7.07476562 10.11632812 -7.11328125 10.69140625 C-8.45341241 14.18047019 -11.25025599 15.82281385 -14.1875 17.9375 C-15.32774141 18.77870433 -16.46706841 19.62114957 -17.60546875 20.46484375 C-18.16862793 20.87911621 -18.73178711 21.29338867 -19.31201172 21.72021484 C-21.00937784 23.00711001 -22.64215785 24.3486404 -24.26953125 25.72265625 C-26.76297798 27.80231211 -29.22631293 29.33578776 -32 31 C-35.0183121 33.44033745 -37.9462027 35.95321974 -40.875 38.5 C-43.68352408 40.84286206 -46.67764093 42.71887208 -49.79296875 44.625 C-56.28009316 48.66653592 -62.12908516 52.86876796 -67.39453125 58.421875 C-69.7131688 60.70102237 -72.23004457 62.31100279 -75 64 C-74.67 62.68 -74.34 61.36 -74 60 C-73.34 60 -72.68 60 -72 60 C-72 59.34 -72 58.68 -72 58 C-71.34 58 -70.68 58 -70 58 C-69.67 57.01 -69.34 56.02 -69 55 C-68.01 55 -67.02 55 -66 55 C-65.67 54.01 -65.34 53.02 -65 52 C-62.65763093 49.07203867 -60.15268442 47.4976699 -56.875 45.8125 C-51.98321386 43.22510898 -48.24093428 39.80089517 -44.26171875 35.98828125 C-42 34 -42 34 -40.01953125 33.04296875 C-37.15048689 31.56127659 -35.27233872 29.27918312 -33 27 C-31.19871173 25.74439612 -29.36311503 24.53688767 -27.5 23.375 C-17.36489853 16.75972441 -8.32407346 8.7767421 0 0 Z " fill="#C4E8F4" transform="translate(506,426)"/>
<path d="M0 0 C0.33 0 0.66 0 1 0 C1.29233842 14.32458268 1.29233842 14.32458268 -2.89453125 21.05078125 C-4.17097927 23.30147934 -5.0753256 25.58415107 -6 28 C-7.20023426 31.12155788 -8.47854966 34.00001495 -10.1875 36.875 C-12.08487575 39.74770822 -12.08487575 39.74770822 -12.4375 42.3125 C-12.623125 42.869375 -12.80875 43.42625 -13 44 C-15.5625 45.25 -15.5625 45.25 -18 46 C-18.0928125 47.546875 -18.0928125 47.546875 -18.1875 49.125 C-19.15051933 53.71786144 -20.87129135 55.5733191 -24 59 C-24.556875 59.94875 -25.11375 60.8975 -25.6875 61.875 C-26.120625 62.57625 -26.55375 63.2775 -27 64 C-27.66 64 -28.32 64 -29 64 C-29 64.66 -29 65.32 -29 66 C-29.99 66 -30.98 66 -32 66 C-32 66.66 -32 67.32 -32 68 C-33.96147874 69.38938077 -35.96166576 70.7260411 -38 72 C-37.1875 70.0625 -37.1875 70.0625 -36 68 C-34.515 67.505 -34.515 67.505 -33 67 C-32.690625 66.195625 -32.38125 65.39125 -32.0625 64.5625 C-31 62 -31 62 -29 61.0625 C-26.01383365 59.47609913 -26.03004285 57.15071931 -25 54 C-23.35830472 51.97945196 -21.69088222 49.97956942 -20 48 C-18.96459289 46.01809886 -17.97032793 44.01456291 -17 42 C-16.35725354 40.74190775 -15.71126108 39.48547002 -15.0625 38.23046875 C-10.25150224 28.91278429 -10.25150224 28.91278429 -6.6484375 19.0859375 C-5.61294943 15.75490963 -4.22131917 12.5715013 -2.8671875 9.359375 C-1.97061154 6.92004221 -1.48739657 4.54814348 -1 2 C-0.67 1.34 -0.34 0.68 0 0 Z " fill="#C0E7F4" transform="translate(546,354)"/>
<path d="M0 0 C3.60096403 0.80092616 5.14733802 2.51541507 7.1953125 5.48828125 C7.1953125 7.13828125 7.1953125 8.78828125 7.1953125 10.48828125 C2.2453125 10.48828125 -2.7046875 10.48828125 -7.8046875 10.48828125 C-7.1446875 11.80828125 -6.4846875 13.12828125 -5.8046875 14.48828125 C-2.89463847 15.57051491 -2.89463847 15.57051491 0.1953125 15.48828125 C1.9040771 14.11313584 1.9040771 14.11313584 3.1953125 12.48828125 C4.1853125 12.48828125 5.1753125 12.48828125 6.1953125 12.48828125 C4.4453125 17.36328125 4.4453125 17.36328125 2.1953125 18.48828125 C-5.04556341 19.07222286 -5.04556341 19.07222286 -8.2421875 16.61328125 C-11.05422816 12.78890596 -11.20801065 10.24749439 -10.8046875 5.48828125 C-8.28377843 0.33685837 -5.38509921 -0.31102058 0 0 Z " fill="#1C1C1C" transform="translate(1350.8046875,552.51171875)"/>
<path d="M0 0 C3.60096403 0.80092616 5.14733802 2.51541507 7.1953125 5.48828125 C7.1953125 7.13828125 7.1953125 8.78828125 7.1953125 10.48828125 C2.2453125 10.48828125 -2.7046875 10.48828125 -7.8046875 10.48828125 C-7.1446875 11.80828125 -6.4846875 13.12828125 -5.8046875 14.48828125 C-2.89463847 15.57051491 -2.89463847 15.57051491 0.1953125 15.48828125 C1.9040771 14.11313584 1.9040771 14.11313584 3.1953125 12.48828125 C4.1853125 12.48828125 5.1753125 12.48828125 6.1953125 12.48828125 C4.4453125 17.36328125 4.4453125 17.36328125 2.1953125 18.48828125 C-5.04556341 19.07222286 -5.04556341 19.07222286 -8.2421875 16.61328125 C-11.05422816 12.78890596 -11.20801065 10.24749439 -10.8046875 5.48828125 C-8.28377843 0.33685837 -5.38509921 -0.31102058 0 0 Z " fill="#1C1C1C" transform="translate(1281.8046875,552.51171875)"/>
<path d="M0 0 C2.5625 1.625 2.5625 1.625 4 4 C4 5.98 4 7.96 4 10 C-0.62 10 -5.24 10 -10 10 C-9.34 11.32 -8.68 12.64 -8 14 C-4.58343976 14.16677282 -4.58343976 14.16677282 -1 14 C-0.34 13.34 0.32 12.68 1 12 C1.99 12 2.98 12 4 12 C2.84826645 14.46800047 1.95216435 16.04783565 0 18 C-4.80073273 18.55090376 -6.91189752 18.70273285 -11 16.0625 C-13.68348727 11.95341012 -13.92715863 8.77843295 -13 4 C-10.14991061 -1.08059414 -5.26457277 -0.94665712 0 0 Z " fill="#0B0B0B" transform="translate(1129,553)"/>
<path d="M0 0 C2.5625 1.625 2.5625 1.625 4 4 C4 5.98 4 7.96 4 10 C-0.62 10 -5.24 10 -10 10 C-9.34 11.32 -8.68 12.64 -8 14 C-4.58343976 14.16677282 -4.58343976 14.16677282 -1 14 C-0.34 13.34 0.32 12.68 1 12 C1.99 12 2.98 12 4 12 C2.84826645 14.46800047 1.95216435 16.04783565 0 18 C-4.80073273 18.55090376 -6.91189752 18.70273285 -11 16.0625 C-13.68348727 11.95341012 -13.92715863 8.77843295 -13 4 C-10.14991061 -1.08059414 -5.26457277 -0.94665712 0 0 Z " fill="#0B0B0B" transform="translate(1060,553)"/>
<path d="M0 0 C2.5625 1.625 2.5625 1.625 4 4 C4 5.98 4 7.96 4 10 C-0.62 10 -5.24 10 -10 10 C-9.34 11.32 -8.68 12.64 -8 14 C-4.58343976 14.16677282 -4.58343976 14.16677282 -1 14 C-0.34 13.34 0.32 12.68 1 12 C1.99 12 2.98 12 4 12 C2.84826645 14.46800047 1.95216435 16.04783565 0 18 C-4.80073273 18.55090376 -6.91189752 18.70273285 -11 16.0625 C-13.68348727 11.95341012 -13.92715863 8.77843295 -13 4 C-10.14991061 -1.08059414 -5.26457277 -0.94665712 0 0 Z " fill="#0B0B0B" transform="translate(884,553)"/>
<path d="M0 0 C1.32 0.33 2.64 0.66 4 1 C4.33 0.67 4.66 0.34 5 0 C12.45864662 -0.36090226 12.45864662 -0.36090226 16 2 C16.66 1.34 17.32 0.68 18 0 C25.06045924 -0.56035391 25.06045924 -0.56035391 27.7421875 1.0390625 C29.69212135 4.07902148 29.31436122 7.20369569 29.1875 10.6875 C29.16719727 11.7403418 29.16719727 11.7403418 29.14648438 12.81445312 C29.11120182 14.54329829 29.05739583 16.27174765 29 18 C28.01 18 27.02 18 26 18 C25.93941406 17.00097656 25.87882812 16.00195312 25.81640625 14.97265625 C25.73261719 13.68230469 25.64882812 12.39195312 25.5625 11.0625 C25.48128906 9.77472656 25.40007812 8.48695313 25.31640625 7.16015625 C25.35080812 4.13976043 25.35080812 4.13976043 24 3 C21.54190002 2.7499227 21.54190002 2.7499227 19 3 C16.22957891 5.77042109 16.60203894 7.76533805 16.375 11.625 C16.30023437 12.81351563 16.22546875 14.00203125 16.1484375 15.2265625 C16.09945313 16.14179687 16.05046875 17.05703125 16 18 C15.01 18 14.02 18 13 18 C12.67 13.38 12.34 8.76 12 4 C9.03 3.505 9.03 3.505 6 3 C3.22957891 5.77042109 3.60203894 7.76533805 3.375 11.625 C3.30023437 12.81351563 3.22546875 14.00203125 3.1484375 15.2265625 C3.09945313 16.14179687 3.05046875 17.05703125 3 18 C2.01 18 1.02 18 0 18 C0 12.06 0 6.12 0 0 Z " fill="#131313" transform="translate(1501,553)"/>
<path d="M0 0 C1.32 0.33 2.64 0.66 4 1 C4.33 0.67 4.66 0.34 5 0 C12.45864662 -0.36090226 12.45864662 -0.36090226 16 2 C16.66 1.34 17.32 0.68 18 0 C25.06045924 -0.56035391 25.06045924 -0.56035391 27.7421875 1.0390625 C29.69212135 4.07902148 29.31436122 7.20369569 29.1875 10.6875 C29.16719727 11.7403418 29.16719727 11.7403418 29.14648438 12.81445312 C29.11120182 14.54329829 29.05739583 16.27174765 29 18 C28.01 18 27.02 18 26 18 C25.67 13.38 25.34 8.76 25 4 C21.01828262 3.2790955 21.01828262 3.2790955 17 3 C16.67 7.95 16.34 12.9 16 18 C15.01 18 14.02 18 13 18 C12.67 13.05 12.34 8.1 12 3 C6.52174919 2.5527864 6.52174919 2.5527864 4 4 C3.52998967 7.27555608 3.52998967 7.27555608 3.375 11.0625 C3.30023437 12.35285156 3.22546875 13.64320313 3.1484375 14.97265625 C3.09945312 15.97167969 3.05046875 16.97070312 3 18 C2.01 18 1.02 18 0 18 C0 12.06 0 6.12 0 0 Z " fill="#0A0A0A" transform="translate(979,553)"/>
<path d="M0 0 C0.66 0.33 1.32 0.66 2 1 C1.34 1.99 0.68 2.98 0 4 C-0.66 4 -1.32 4 -2 4 C-2.33 5.32 -2.66 6.64 -3 8 C-3.66 8 -4.32 8 -5 8 C-5.08378906 8.70511719 -5.16757812 9.41023438 -5.25390625 10.13671875 C-6.17474237 13.67060815 -7.76960831 15.88408212 -9.9375 18.8125 C-10.64777344 19.78832031 -11.35804688 20.76414062 -12.08984375 21.76953125 C-12.72019531 22.50558594 -13.35054688 23.24164062 -14 24 C-14.66 24 -15.32 24 -16 24 C-16.04125 24.70125 -16.0825 25.4025 -16.125 26.125 C-17 29 -17 29 -19.75 31.5 C-23.78810978 35.20965109 -25.04272066 39.85115073 -26.83203125 44.91796875 C-28.16084609 48.42444002 -29.72360239 51.04911421 -32 54 C-33.81511336 48.55465992 -30.24722907 43.05470915 -28 38 C-26.77034745 35.8874166 -25.42779821 33.98871894 -24 32 C-23.84917969 31.36707031 -23.69835937 30.73414063 -23.54296875 30.08203125 C-22.92674767 27.71911158 -21.98484751 26.22524818 -20.5625 24.25 C-20.13066406 23.63640625 -19.69882812 23.0228125 -19.25390625 22.390625 C-18.84011719 21.93171875 -18.42632812 21.4728125 -18 21 C-17.34 21 -16.68 21 -16 21 C-15.814375 20.34 -15.62875 19.68 -15.4375 19 C-13.36106339 14.66656708 -10.22302214 11.52598622 -7 8 C-5.68407301 6.50300554 -4.37141767 5.003127 -3.0625 3.5 C-2.04166667 2.33333333 -1.02083333 1.16666667 0 0 Z " fill="#A3D8EB" transform="translate(429,490)"/>
<path d="M0 0 C1.875 1 1.875 1 3 3 C3.53653931 6.57692871 3.65701652 9.76326302 1.9375 13 C-1.16867275 14.60318593 -3.57990979 14.42751128 -7 14 C-9.62541413 11.79803976 -9.9445448 10.38026421 -10.4375 7 C-10 4 -10 4 -8.375 1.625 C-5.32214079 -0.46379841 -3.63031776 -0.54068562 0 0 Z " fill="#F4F4F4" transform="translate(933,480)"/>
<path d="M0 0 C1.125 1.5625 1.125 1.5625 2 4 C0.90461712 9.17817359 -1.09899148 14.07042399 -3 19 C-3.56390425 20.49947266 -4.12645038 21.99945691 -4.6875 23.5 C-5.120625 24.655 -5.55375 25.81 -6 27 C-6.66 27 -7.32 27 -8 27 C-8.16435547 28.15628906 -8.16435547 28.15628906 -8.33203125 29.3359375 C-8.56986328 30.84027344 -8.56986328 30.84027344 -8.8125 32.375 C-8.96332031 33.37273437 -9.11414063 34.37046875 -9.26953125 35.3984375 C-10 38 -10 38 -13 40 C-14.17458129 42.49896664 -14.17458129 42.49896664 -15.1875 45.4375 C-17.79211434 52.00462214 -21.28821538 57.7161444 -26 63 C-26.66 63 -27.32 63 -28 63 C-28.28875 63.804375 -28.5775 64.60875 -28.875 65.4375 C-30 68 -30 68 -32 69 C-30.88623973 65.43596713 -29.22364477 62.89468691 -26.9375 60 C-24.97127018 57.49494759 -24.05749153 56.29384558 -23.4375 53.125 C-23.293125 52.42375 -23.14875 51.7225 -23 51 C-21.33333333 50.33333333 -19.66666667 49.66666667 -18 49 C-17.64004155 47.33888026 -17.31224539 45.67074585 -17 44 C-16.09555776 42.03676459 -15.13256165 40.09986203 -14.125 38.1875 C-12.30333075 34.64875495 -10.59601697 31.18414517 -9.25 27.4375 C-8 24 -8 24 -6 21 C-5.5437208 18.42286746 -5.17054724 15.90701715 -4.875 13.3125 C-4.78863281 12.61060547 -4.70226562 11.90871094 -4.61328125 11.18554688 C-4.40173125 9.45788855 -4.199914 7.7290434 -4 6 C-3.01 5.67 -2.02 5.34 -1 5 C-0.67 3.35 -0.34 1.7 0 0 Z " fill="#A8DDEF" transform="translate(551,349)"/>
<path d="M0 0 C0.66 0.33 1.32 0.66 2 1 C0.948125 1.8353125 0.948125 1.8353125 -0.125 2.6875 C-1.07375 3.450625 -2.0225 4.21375 -3 5 C-4.010625 5.804375 -5.02125 6.60875 -6.0625 7.4375 C-9.0299375 9.85576015 -9.0299375 9.85576015 -11.0625 12.6875 C-13.25092956 15.29949658 -14.89667575 15.77500359 -18 17 C-18.6921306 18.32029446 -19.35583068 19.65565328 -20 21 C-21.96522534 23.47898168 -24.15179943 25.75311637 -26.3125 28.0625 C-26.88162109 28.68705078 -27.45074219 29.31160156 -28.03710938 29.95507812 C-30.49579011 32.60006532 -32.59353835 34.75939339 -35.71875 36.609375 C-38.61069501 38.37227299 -39.59444089 40.22774138 -41.1875 43.1875 C-42.07312342 44.82087935 -42.99867474 46.4348787 -44 48 C-44.66 48 -45.32 48 -46 48 C-45.50521514 43.54693628 -44.20056327 42.02755985 -41 39 C-40.07053892 37.7175092 -39.15514872 36.42476396 -38.25 35.125 C-35.52712395 31.39057203 -32.5318269 29.00784156 -28.76171875 26.38671875 C-26.49900919 24.60565025 -25.33515429 22.5219581 -24 20 C-23.34 20 -22.68 20 -22 20 C-21.77957031 19.25878906 -21.55914062 18.51757812 -21.33203125 17.75390625 C-19.67022184 14.31820058 -17.82590126 13.07365133 -14.6875 10.9375 C-7.9445294 6.8255699 -7.9445294 6.8255699 -3 1 C-2.01 0.67 -1.02 0.34 0 0 Z " fill="#87C7E1" transform="translate(458,471)"/>
<path d="M0 0 C6.30247003 0.35013722 6.30247003 0.35013722 8.71484375 2.59765625 C10.48985327 5.91568317 10.29130737 8.51293462 10.1875 12.25 C10.16042969 13.51328125 10.13335938 14.7765625 10.10546875 16.078125 C10.07066406 17.04234375 10.03585937 18.0065625 10 19 C9.01 19 8.02 19 7 19 C6.67 14.05 6.34 9.1 6 4 C3.69 4 1.38 4 -1 4 C-2.94090826 5.94090826 -2.39919435 9.47293902 -2.5625 12.0625 C-2.64628906 13.35285156 -2.73007813 14.64320313 -2.81640625 15.97265625 C-2.87699219 16.97167969 -2.93757813 17.97070312 -3 19 C-3.99 19 -4.98 19 -6 19 C-6 13.06 -6 7.12 -6 1 C-4.35 1 -2.7 1 -1 1 C-0.67 0.67 -0.34 0.34 0 0 Z " fill="#232323" transform="translate(1424,552)"/>
<path d="M0 0 C6.30247003 0.35013722 6.30247003 0.35013722 8.71484375 2.59765625 C10.48985327 5.91568317 10.29130737 8.51293462 10.1875 12.25 C10.16042969 13.51328125 10.13335938 14.7765625 10.10546875 16.078125 C10.07066406 17.04234375 10.03585937 18.0065625 10 19 C9.01 19 8.02 19 7 19 C6.67 14.05 6.34 9.1 6 4 C3.69 4 1.38 4 -1 4 C-2.94090826 5.94090826 -2.39919435 9.47293902 -2.5625 12.0625 C-2.64628906 13.35285156 -2.73007813 14.64320313 -2.81640625 15.97265625 C-2.87699219 16.97167969 -2.93757813 17.97070312 -3 19 C-3.99 19 -4.98 19 -6 19 C-6 13.06 -6 7.12 -6 1 C-4.35 1 -2.7 1 -1 1 C-0.67 0.67 -0.34 0.34 0 0 Z " fill="#232323" transform="translate(1161,552)"/>
<path d="M0 0 C0.99 0 1.98 0 3 0 C3.06058594 0.92683594 3.12117187 1.85367188 3.18359375 2.80859375 C3.26738281 4.00613281 3.35117187 5.20367188 3.4375 6.4375 C3.51871094 7.63246094 3.59992187 8.82742188 3.68359375 10.05859375 C3.67656114 12.88570244 3.67656114 12.88570244 5 14 C8 14.16666667 8 14.16666667 11 14 C12.87824891 12.12175109 12.39102397 8.96064724 12.5625 6.4375 C12.64628906 5.23996094 12.73007812 4.04242187 12.81640625 2.80859375 C12.87699219 1.88175781 12.93757812 0.95492187 13 0 C13.99 0 14.98 0 16 0 C16 5.94 16 11.88 16 18 C14.68 17.67 13.36 17.34 12 17 C11.67 17.33 11.34 17.66 11 18 C4.53846154 18.35897436 4.53846154 18.35897436 1 16 C-0.14077657 12.57767028 -0.09815117 9.91326783 -0.0625 6.3125 C-0.05347656 5.13300781 -0.04445313 3.95351563 -0.03515625 2.73828125 C-0.02355469 1.83464844 -0.01195312 0.93101562 0 0 Z " fill="#0E0E0E" transform="translate(924,553)"/>
<path d="M0 0 C2.9375 0.75 2.9375 0.75 4.9375 2.75 C5.203125 4.625 5.203125 4.625 5.1875 6.75 C5.19265625 7.45125 5.1978125 8.1525 5.203125 8.875 C4.9375 10.75 4.9375 10.75 2.9375 12.75 C-3.20481015 13.4200702 -3.20481015 13.4200702 -6.0625 11.1875 C-7.49385511 7.69857191 -6.996466 5.35244028 -6.0625 1.75 C-3.0625 -0.25 -3.0625 -0.25 0 0 Z " fill="#F5F5F5" transform="translate(1476.0625,555.25)"/>
<path d="M0 0 C2.9375 0.75 2.9375 0.75 4.9375 2.75 C5.203125 4.625 5.203125 4.625 5.1875 6.75 C5.19265625 7.45125 5.1978125 8.1525 5.203125 8.875 C4.9375 10.75 4.9375 10.75 2.9375 12.75 C-3.20481015 13.4200702 -3.20481015 13.4200702 -6.0625 11.1875 C-7.49385511 7.69857191 -6.996466 5.35244028 -6.0625 1.75 C-3.0625 -0.25 -3.0625 -0.25 0 0 Z " fill="#F5F5F5" transform="translate(1206.0625,555.25)"/>
<path d="M0 0 C2.9375 0.75 2.9375 0.75 4.9375 2.75 C5.203125 4.625 5.203125 4.625 5.1875 6.75 C5.19265625 7.45125 5.1978125 8.1525 5.203125 8.875 C4.9375 10.75 4.9375 10.75 2.9375 12.75 C-3.20481015 13.4200702 -3.20481015 13.4200702 -6.0625 11.1875 C-7.49385511 7.69857191 -6.996466 5.35244028 -6.0625 1.75 C-3.0625 -0.25 -3.0625 -0.25 0 0 Z " fill="#F5F5F5" transform="translate(966.0625,555.25)"/>
<path d="M0 0 C2.9375 0.75 2.9375 0.75 4.9375 2.75 C5.25287716 7.08643601 5.38647847 9.07653229 2.9375 12.75 C-0.5 13.1875 -0.5 13.1875 -4.0625 12.75 C-6.0625 11.1875 -6.0625 11.1875 -7.0625 8.75 C-6.9375 5.125 -6.9375 5.125 -6.0625 1.75 C-3.0625 -0.25 -3.0625 -0.25 0 0 Z " fill="#F7F7F7" transform="translate(1404.0625,555.25)"/>
<path d="M0 0 C2.9375 0.75 2.9375 0.75 4.9375 2.75 C5.25287716 7.08643601 5.38647847 9.07653229 2.9375 12.75 C-0.5 13.1875 -0.5 13.1875 -4.0625 12.75 C-6.0625 11.1875 -6.0625 11.1875 -7.0625 8.75 C-6.9375 5.125 -6.9375 5.125 -6.0625 1.75 C-3.0625 -0.25 -3.0625 -0.25 0 0 Z " fill="#F7F7F7" transform="translate(1022.0625,555.25)"/>
<path d="M0 0 C2.875 0.875 2.875 0.875 4.875 2.875 C5.140625 4.75 5.140625 4.75 5.125 6.875 C5.13015625 7.57625 5.1353125 8.2775 5.140625 9 C4.875 10.875 4.875 10.875 2.875 12.875 C-0.5625 13.25 -0.5625 13.25 -4.125 12.875 C-6.50960953 10.79808202 -7.0209746 9.46943084 -7.5625 6.375 C-7.125 3.875 -7.125 3.875 -5.5 1.5 C-3.125 -0.125 -3.125 -0.125 0 0 Z " fill="#F6F6F6" transform="translate(1246.125,555.125)"/>
<path d="M0 0 C2.875 0.875 2.875 0.875 4.875 2.875 C5.140625 4.75 5.140625 4.75 5.125 6.875 C5.13015625 7.57625 5.1353125 8.2775 5.140625 9 C4.875 10.875 4.875 10.875 2.875 12.875 C-0.5625 13.25 -0.5625 13.25 -4.125 12.875 C-6.50960953 10.79808202 -7.0209746 9.46943084 -7.5625 6.375 C-7.125 3.875 -7.125 3.875 -5.5 1.5 C-3.125 -0.125 -3.125 -0.125 0 0 Z " fill="#F6F6F6" transform="translate(910.125,555.125)"/>
<path d="M0 0 C12.32337884 -0.36604096 12.32337884 -0.36604096 14.90625 1.03125 C16.62218697 4.11993655 16.31239868 7.25758998 16.1875 10.6875 C16.16719727 11.7403418 16.16719727 11.7403418 16.14648438 12.81445312 C16.11120182 14.54329829 16.05739583 16.27174765 16 18 C15.01 18 14.02 18 13 18 C12.67 13.38 12.34 8.76 12 4 C6.53915739 2.48534976 6.53915739 2.48534976 4 4 C3.52998967 7.27555608 3.52998967 7.27555608 3.375 11.0625 C3.30023437 12.35285156 3.22546875 13.64320313 3.1484375 14.97265625 C3.09945313 15.97167969 3.05046875 16.97070312 3 18 C2.01 18 1.02 18 0 18 C0 12.06 0 6.12 0 0 Z " fill="#0F0F0F" transform="translate(1176,553)"/>
<path d="M0 0 C1.32 0.33 2.64 0.66 4 1 C4.50588147 2.91512272 5.00448391 4.83216922 5.5 6.75 C5.7784375 7.81734375 6.056875 8.8846875 6.34375 9.984375 C7 13 7 13 7 17 C7.66 17 8.32 17 9 17 C9.12117188 16.32453125 9.24234375 15.6490625 9.3671875 14.953125 C9.53476563 14.06109375 9.70234375 13.1690625 9.875 12.25 C10.03742188 11.36828125 10.19984375 10.4865625 10.3671875 9.578125 C10.96796264 7.13052256 11.77997117 5.19400143 13 3 C13 3.66 13 4.32 13 5 C13.66 5.33 14.32 5.66 15 6 C13.35 11.61 11.7 17.22 10 23 C8.68 23 7.36 23 6 23 C3.76543688 15.37428218 1.61088355 7.78593716 0 0 Z " fill="#1C1C1C" transform="translate(1307,548)"/>
<path d="M0 0 C2.73255991 0.06447056 3.77132266 0.11231558 6.0625 1.6875 C7.0625 3.3125 7.0625 3.3125 7.0625 5.3125 C6.505625 5.168125 5.94875 5.02375 5.375 4.875 C2.94865805 4.28480872 0.51343655 3.789071 -1.9375 3.3125 C-1.9375 4.3025 -1.9375 5.2925 -1.9375 6.3125 C-1.37160156 6.54324219 -0.80570313 6.77398438 -0.22265625 7.01171875 C5.76706754 9.67498785 5.76706754 9.67498785 7.25 12.875 C7.0625 15.3125 7.0625 15.3125 6.125 17.125 C2.89403432 18.98525296 -0.31710593 19.15725862 -3.9375 18.3125 C-5.9375 15.8125 -5.9375 15.8125 -6.9375 13.3125 C-6.1021875 13.5290625 -6.1021875 13.5290625 -5.25 13.75 C-0.64413689 14.90733624 -0.64413689 14.90733624 4.0625 15.3125 C3.7325 14.3225 3.4025 13.3325 3.0625 12.3125 C0.75145182 11.26202356 -1.58333651 10.26242562 -3.9375 9.3125 C-5.9375 7.3125 -5.9375 7.3125 -6.1875 4.8125 C-5.74797428 0.41724284 -4.2512448 0.33740038 0 0 Z " fill="#151515" transform="translate(1444.9375,552.6875)"/>
<path d="M0 0 C1.32 0 2.64 0 4 0 C4 1.65 4 3.3 4 5 C5.32 5 6.64 5 8 5 C8 5.66 8 6.32 8 7 C6.68 7 5.36 7 4 7 C4.33 11.29 4.66 15.58 5 20 C5.99 20.33 6.98 20.66 8 21 C8 21.66 8 22.32 8 23 C3.54676754 23.3610729 3.54676754 23.3610729 1.34375 21.90625 C-0.65709853 19.06783697 -0.28913696 16.73427756 -0.1875 13.3125 C-0.16042969 12.13300781 -0.13335938 10.95351563 -0.10546875 9.73828125 C-0.07066406 8.83464844 -0.03585937 7.93101562 0 7 C-0.66 7 -1.32 7 -2 7 C-2 6.34 -2 5.68 -2 5 C-1.34 5 -0.68 5 0 5 C0 3.35 0 1.7 0 0 Z " fill="#2B2B2B" transform="translate(1260,548)"/>
<path d="M0 0 C0.66 0.33 1.32 0.66 2 1 C-0.16069021 4.98021881 -2.62650361 7.97250324 -6 11 C-6.66 11 -7.32 11 -8 11 C-8.66 12.32 -9.32 13.64 -10 15 C-10.66 15 -11.32 15 -12 15 C-12.27457031 15.58910156 -12.54914063 16.17820312 -12.83203125 16.78515625 C-15.99889082 22.79053878 -21.08065566 27.70994582 -27 31 C-29.9375 31.8125 -29.9375 31.8125 -32 32 C-28.19093596 26.74611856 -23.68643005 23.46393053 -18.328125 19.83203125 C-15.74195344 18.14248763 -15.74195344 18.14248763 -15 15 C-13.35360035 13.64172029 -11.68704193 12.30745749 -10 11 C-9.67 10.34 -9.34 9.68 -9 9 C-8.34 9 -7.68 9 -7 9 C-6.731875 8.401875 -6.46375 7.80375 -6.1875 7.1875 C-5.00082594 5.00152146 -3.90400887 3.58667406 -2 2 C-1.34 2 -0.68 2 0 2 C0 1.34 0 0.68 0 0 Z " fill="#AADBED" transform="translate(514,420)"/>
<path d="M0 0 C0.99 0 1.98 0 3 0 C4.65 4.29 6.3 8.58 8 13 C9.98 8.71 11.96 4.42 14 0 C14.99 0.33 15.98 0.66 17 1 C16.12855441 3.65626197 15.22999564 6.29717637 14.3125 8.9375 C14.06822266 9.69224609 13.82394531 10.44699219 13.57226562 11.22460938 C12.84217244 13.28550532 12.14748295 15.13771045 11 17 C8.29296875 18.00390625 8.29296875 18.00390625 6 18 C4.99600476 15.37646482 3.99665555 12.75132205 3 10.125 C2.57074219 9.00544922 2.57074219 9.00544922 2.1328125 7.86328125 C0 2.2265625 0 2.2265625 0 0 Z " fill="#161616" transform="translate(1217,553)"/>
<path d="M0 0 C0.33 0.66 0.66 1.32 1 2 C0.06553465 4.03144641 -0.93224776 6.03533587 -2 8 C-2.66 8 -3.32 8 -4 8 C-4.268125 8.969375 -4.53625 9.93875 -4.8125 10.9375 C-6.06628255 15.33926896 -7.5264507 19.66776506 -9 24 C-9.66 24 -10.32 24 -11 24 C-11 25.32 -11 26.64 -11 28 C-11.66 28 -12.32 28 -13 28 C-13.103125 28.886875 -13.20625 29.77375 -13.3125 30.6875 C-14.01715907 34.0826755 -14.9554566 36.21942098 -17 39 C-17.66 39 -18.32 39 -19 39 C-18.731875 38.360625 -18.46375 37.72125 -18.1875 37.0625 C-17.28930617 34.7461054 -16.53775479 32.49327027 -15.8125 30.125 C-13.92307227 24.33984498 -11.24302525 18.93240917 -8.62109375 13.453125 C-7.0146623 10.14664747 -7.0146623 10.14664747 -5.94921875 7.22265625 C-4.62285182 4.11688347 -2.45711988 2.26313673 0 0 Z " fill="#93D0E6" transform="translate(411,519)"/>
<path d="M0 0 C0.99 0 1.98 0 3 0 C3 1.65 3 3.3 3 5 C4.65 5 6.3 5 8 5 C8 5.66 8 6.32 8 7 C6.35 7 4.7 7 3 7 C3 11.29 3 15.58 3 20 C4.65 20 6.3 20 8 20 C8 20.99 8 21.98 8 23 C5.125 23.125 5.125 23.125 2 23 C0 21 0 21 -0.1953125 17.7421875 C-0.17210937 16.46601562 -0.14890625 15.18984375 -0.125 13.875 C-0.10695313 12.59367188 -0.08890625 11.31234375 -0.0703125 9.9921875 C-0.04710937 9.00476563 -0.02390625 8.01734375 0 7 C-0.66 7 -1.32 7 -2 7 C-2 6.34 -2 5.68 -2 5 C-1.34 5 -0.68 5 0 5 C0 3.35 0 1.7 0 0 Z " fill="#0C0C0C" transform="translate(946,548)"/>
<path d="M0 0 C0.99 0 1.98 0 3 0 C3 1.65 3 3.3 3 5 C4.65 5 6.3 5 8 5 C8 5.66 8 6.32 8 7 C6.35 7 4.7 7 3 7 C3 11.29 3 15.58 3 20 C4.65 20 6.3 20 8 20 C8 20.99 8 21.98 8 23 C5.125 23.1875 5.125 23.1875 2 23 C-0.42130331 19.36804504 -0.21022785 17.61650652 -0.125 13.3125 C-0.09792969 11.54326172 -0.09792969 11.54326172 -0.0703125 9.73828125 C-0.04710937 8.83464844 -0.02390625 7.93101562 0 7 C-0.66 7 -1.32 7 -2 7 C-2 6.34 -2 5.68 -2 5 C-1.34 5 -0.68 5 0 5 C0 3.35 0 1.7 0 0 Z " fill="#141414" transform="translate(1371,548)"/>
<path d="M0 0 C0.99 0 1.98 0 3 0 C3 1.65 3 3.3 3 5 C4.65 5 6.3 5 8 5 C8 5.66 8 6.32 8 7 C6.35 7 4.7 7 3 7 C3 11.29 3 15.58 3 20 C4.65 20 6.3 20 8 20 C8 20.99 8 21.98 8 23 C5.125 23.1875 5.125 23.1875 2 23 C-0.42130331 19.36804504 -0.21022785 17.61650652 -0.125 13.3125 C-0.09792969 11.54326172 -0.09792969 11.54326172 -0.0703125 9.73828125 C-0.04710937 8.83464844 -0.02390625 7.93101562 0 7 C-0.66 7 -1.32 7 -2 7 C-2 6.34 -2 5.68 -2 5 C-1.34 5 -0.68 5 0 5 C0 3.35 0 1.7 0 0 Z " fill="#141414" transform="translate(1036,548)"/>
<path d="M0 0 C1.32 0 2.64 0 4 0 C4 0.66 4 1.32 4 2 C3.01 2.495 3.01 2.495 2 3 C1.34786708 5.02463255 1.34786708 5.02463255 1 7 C2.32 7 3.64 7 5 7 C5 7.66 5 8.32 5 9 C3.68 9 2.36 9 1 9 C1 14.28 1 19.56 1 25 C0.01 25 -0.98 25 -2 25 C-2 19.72 -2 14.44 -2 9 C-2.66 9 -3.32 9 -4 9 C-4 8.34 -4 7.68 -4 7 C-3.34 7 -2.68 7 -2 7 C-2.04125 6.21625 -2.0825 5.4325 -2.125 4.625 C-2 2 -2 2 0 0 Z " fill="#090909" transform="translate(1459,546)"/>
<path d="M0 0 C2.5625 0.3125 2.5625 0.3125 4.4375 1.5 C5.5625 3.3125 5.5625 3.3125 5.375 5.875 C4.5625 8.3125 4.5625 8.3125 2.5625 10.3125 C-0.4375 10.625 -0.4375 10.625 -3.4375 10.3125 C-5.4375 7.3125 -5.4375 7.3125 -5.1875 4.75 C-4.19253762 1.51637226 -3.41216263 0.43745675 0 0 Z " fill="#111111" transform="translate(1045.4375,458.6875)"/>
<path d="M0 0 C2.4375 0.75 2.4375 0.75 4.4375 2.75 C4.6875 5.25 4.6875 5.25 4.4375 7.75 C2.4375 9.75 2.4375 9.75 -0.5625 10 C-3.5625 9.75 -3.5625 9.75 -5.5625 7.75 C-5.875 4.75 -5.875 4.75 -5.5625 1.75 C-2.5625 -0.25 -2.5625 -0.25 0 0 Z " fill="#0B0B0B" transform="translate(882.5625,459.25)"/>
<path d="M0 0 C0.33 0.99 0.66 1.98 1 3 C0.04422943 4.36538653 -0.96352976 5.69481525 -2 7 C-2.72904086 8.64034193 -3.38655243 10.31301918 -4 12 C-4.54085107 13.43780706 -5.08256137 14.87529112 -5.625 16.3125 C-6.07875 17.529375 -6.5325 18.74625 -7 20 C-7.33 20 -7.66 20 -8 20 C-7.55643705 13.79011871 -6.08467498 9.39459439 -3 4 C-2.34 4 -1.68 4 -1 4 C-0.67 2.68 -0.34 1.36 0 0 Z M-10 20 C-9.34 20 -8.68 20 -8 20 C-8.27714844 21.22976563 -8.55429687 22.45953125 -8.83984375 23.7265625 C-9.20581467 25.35935584 -9.57169532 26.99216941 -9.9375 28.625 C-10.11990234 29.43324219 -10.30230469 30.24148438 -10.49023438 31.07421875 C-11.45044563 35.36898181 -12.33096919 39.64777849 -13 44 C-13.33 44 -13.66 44 -14 44 C-14.0544452 41.79194476 -14.09299283 39.58349446 -14.125 37.375 C-14.14820313 36.14523437 -14.17140625 34.91546875 -14.1953125 33.6484375 C-14.0030428 30.05683959 -13.30258556 27.33338825 -12 24 C-11.34 24 -10.68 24 -10 24 C-10 22.68 -10 21.36 -10 20 Z " fill="#84C8E1" transform="translate(410,523)"/>
<path d="M0 0 C0.99 0 1.98 0 3 0 C3 1.32 3 2.64 3 4 C1.35 4.66 -0.3 5.32 -2 6 C-2.33 10.29 -2.66 14.58 -3 19 C-3.99 19 -4.98 19 -6 19 C-6 13.06 -6 7.12 -6 1 C-4.68 1.33 -3.36 1.66 -2 2 C-1.34 1.34 -0.68 0.68 0 0 Z " fill="#0A0A0A" transform="translate(1495,552)"/>
<path d="M0 0 C0.99 0 1.98 0 3 0 C3 1.32 3 2.64 3 4 C1.35 4.66 -0.3 5.32 -2 6 C-2.33 10.29 -2.66 14.58 -3 19 C-3.99 19 -4.98 19 -6 19 C-6 13.06 -6 7.12 -6 1 C-4.68 1.33 -3.36 1.66 -2 2 C-1.34 1.34 -0.68 0.68 0 0 Z " fill="#0A0A0A" transform="translate(1389,552)"/>
<path d="M0 0 C0.99 0 1.98 0 3 0 C1.80398501 7.99441599 -0.26688367 15.397691 -3 23 C-4.32 23 -5.64 23 -7 23 C-7 21.68 -7 20.36 -7 19 C-6.01 19 -5.02 19 -4 19 C-3.896875 17.72125 -3.79375 16.4425 -3.6875 15.125 C-3.11866692 9.86329406 -1.6625387 5.00852854 0 0 Z " fill="#232323" transform="translate(1110,548)"/>
<path d="M0 0 C0.99 0 1.98 0 3 0 C1.80398501 7.99441599 -0.26688367 15.397691 -3 23 C-4.32 23 -5.64 23 -7 23 C-7 21.68 -7 20.36 -7 19 C-6.01 19 -5.02 19 -4 19 C-3.896875 17.72125 -3.79375 16.4425 -3.6875 15.125 C-3.11866692 9.86329406 -1.6625387 5.00852854 0 0 Z " fill="#232323" transform="translate(865,548)"/>
<path d="M0 0 C0.66 0.33 1.32 0.66 2 1 C-0.97424678 5.00379374 -4.05323863 7.99702939 -8 11 C-8.66 11 -9.32 11 -10 11 C-10.24492187 11.61359375 -10.48984375 12.2271875 -10.7421875 12.859375 C-12.25052285 15.42635567 -13.44256788 16.03857904 -16.125 17.25 C-16.84945313 17.58515625 -17.57390625 17.9203125 -18.3203125 18.265625 C-19.15175781 18.62914062 -19.15175781 18.62914062 -20 19 C-18.96014641 15.88043924 -18.32277946 15.15072172 -16 13 C-15.443125 12.4225 -14.88625 11.845 -14.3125 11.25 C-12.24662454 9.23995901 -10.14828764 7.29610323 -8 5.375 C-7.34 4.78460938 -6.68 4.19421875 -6 3.5859375 C-4.04751648 2.03767909 -2.32297592 0.90015317 0 0 Z " fill="#97D0E6" transform="translate(480,452)"/>
<path d="M0 0 C0.99 0.33 1.98 0.66 3 1 C0.21411507 4.61133232 -2.74037961 7.81281562 -6 11 C-7.06154297 12.11181641 -7.06154297 12.11181641 -8.14453125 13.24609375 C-8.92183594 14.05175781 -9.69914063 14.85742188 -10.5 15.6875 C-11.2321875 16.45449219 -11.964375 17.22148437 -12.71875 18.01171875 C-15.07365648 20.06419717 -17.05239249 21.02957288 -20 22 C-18.625 20 -18.625 20 -17 18 C-16.34 18 -15.68 18 -15 18 C-14.67515625 17.19949219 -14.67515625 17.19949219 -14.34375 16.3828125 C-12.51180423 13.13430401 -10.04026612 10.572802 -7.5 7.875 C-7.00113281 7.33746094 -6.50226562 6.79992187 -5.98828125 6.24609375 C-4.02214504 4.13236554 -2.04136111 2.04136111 0 0 Z " fill="#6FB7D6" transform="translate(526,415)"/>
<path d="M0 0 C2.8125 -0.25 2.8125 -0.25 6 0 C8.63162453 2.43668938 8.98702375 3.8470533 9.29296875 7.453125 C9.25816406 8.70609375 9.22335937 9.9590625 9.1875 11.25 C9.16042969 12.51328125 9.13335938 13.7765625 9.10546875 15.078125 C9.07066406 16.04234375 9.03585937 17.0065625 9 18 C8.01 18 7.02 18 6 18 C5.67 13.05 5.34 8.1 5 3 C2.03 2.505 2.03 2.505 -1 2 C-0.67 1.34 -0.34 0.68 0 0 Z " fill="#0C0C0C" transform="translate(1425,553)"/>
<path d="M0 0 C2.8125 -0.25 2.8125 -0.25 6 0 C8.63162453 2.43668938 8.98702375 3.8470533 9.29296875 7.453125 C9.25816406 8.70609375 9.22335937 9.9590625 9.1875 11.25 C9.16042969 12.51328125 9.13335938 13.7765625 9.10546875 15.078125 C9.07066406 16.04234375 9.03585937 17.0065625 9 18 C8.01 18 7.02 18 6 18 C5.67 13.05 5.34 8.1 5 3 C2.03 2.505 2.03 2.505 -1 2 C-0.67 1.34 -0.34 0.68 0 0 Z " fill="#0C0C0C" transform="translate(1162,553)"/>
<path d="M0 0 C5.40983607 -0.36065574 5.40983607 -0.36065574 7.6875 1.03125 C9.708874 4.063311 9.31526465 7.17888614 9.1875 10.6875 C9.17396484 11.38939453 9.16042969 12.09128906 9.14648438 12.81445312 C9.11120182 14.54329829 9.05739583 16.27174765 9 18 C8.01 18 7.02 18 6 18 C5.67 13.38 5.34 8.76 5 4 C3.02 3.34 1.04 2.68 -1 2 C-0.67 1.34 -0.34 0.68 0 0 Z " fill="#101010" transform="translate(999,553)"/>
<path d="M0 0 C0.99 0 1.98 0 3 0 C3 5.94 3 11.88 3 18 C-0.3 17.34 -3.6 16.68 -7 16 C-7 15.67 -7 15.34 -7 15 C-5.02 14.34 -3.04 13.68 -1 13 C-0.67 8.71 -0.34 4.42 0 0 Z " fill="#1A1A1A" transform="translate(937,553)"/>
<path d="M0 0 C5.40983607 -0.36065574 5.40983607 -0.36065574 7.6875 1.03125 C9.708874 4.063311 9.31526465 7.17888614 9.1875 10.6875 C9.17396484 11.38939453 9.16042969 12.09128906 9.14648438 12.81445312 C9.11120182 14.54329829 9.05739583 16.27174765 9 18 C8.01 18 7.02 18 6 18 C5.67 13.38 5.34 8.76 5 4 C3.02 3.34 1.04 2.68 -1 2 C-0.67 1.34 -0.34 0.68 0 0 Z " fill="#181818" transform="translate(1521,553)"/>
<path d="M0 0 C0.66 0 1.32 0 2 0 C2.50559908 1.43554025 3.0042749 2.8735202 3.5 4.3125 C3.7784375 5.11300781 4.056875 5.91351563 4.34375 6.73828125 C5 9 5 9 5 12 C2.36 12 -0.28 12 -3 12 C-2.49202991 7.6822542 -1.80317221 3.96697886 0 0 Z " fill="#EAEAEA" transform="translate(1017,476)"/>
<path d="M0 0 C0.66 0 1.32 0 2 0 C1.33333333 7.33333333 0.66666667 14.66666667 0 22 C-0.99 22.33 -1.98 22.66 -3 23 C-3.433422 14.84524526 -2.29370226 7.82316305 0 0 Z " fill="#6CB9D8" transform="translate(401,561)"/>
<path d="M0 0 C0.99 0 1.98 0 3 0 C3 0.66 3 1.32 3 2 C3.66 2 4.32 2 5 2 C4.67 2.99 4.34 3.98 4 5 C3.77548542 7.22574335 3.59217122 9.45581519 3.4375 11.6875 C3.35371094 12.86699219 3.26992187 14.04648437 3.18359375 15.26171875 C3.12300781 16.16535156 3.06242187 17.06898438 3 18 C2.01 18 1.02 18 0 18 C0 12.06 0 6.12 0 0 Z " fill="#090909" transform="translate(1501,553)"/>
<path d="M0 0 C3.625 0.375 3.625 0.375 7 1 C7.33 2.65 7.66 4.3 8 6 C4.37 6 0.74 6 -3 6 C-2 2 -2 2 0 0 Z " fill="#DDDDDD" transform="translate(1122,555)"/>
<path d="M0 0 C3.625 0.375 3.625 0.375 7 1 C7.33 2.65 7.66 4.3 8 6 C4.37 6 0.74 6 -3 6 C-2 2 -2 2 0 0 Z " fill="#DDDDDD" transform="translate(1053,555)"/>
<path d="M0 0 C3.625 0.375 3.625 0.375 7 1 C7.33 2.65 7.66 4.3 8 6 C4.37 6 0.74 6 -3 6 C-2 2 -2 2 0 0 Z " fill="#DDDDDD" transform="translate(877,555)"/>
<path d="M0 0 C0 7.61485614 -4.39526301 16.0308965 -9 22 C-10.82114302 16.53657094 -7.33530019 11.02798141 -5 6 C-3.46950303 3.68981589 -1.9665805 1.9665805 0 0 Z " fill="#AADCEE" transform="translate(406,522)"/>
<path d="M0 0 C0.99 0 1.98 0 3 0 C3 5.94 3 11.88 3 18 C2.01 18 1.02 18 0 18 C0 12.06 0 6.12 0 0 Z " fill="#1C1C1C" transform="translate(1146,553)"/>
<path d="M0 0 C4.16258147 -0.04969106 8.32500261 -0.08585642 12.48779297 -0.10986328 C13.90188609 -0.11987856 15.31595873 -0.13349474 16.72998047 -0.15087891 C18.77055946 -0.17532559 20.81086303 -0.18652784 22.8515625 -0.1953125 C24.07697754 -0.20578613 25.30239258 -0.21625977 26.56494141 -0.22705078 C30.03833297 0.00253374 32.76606976 0.7488543 36 2 C36 2.33 36 2.66 36 3 C34.93523438 2.9278125 33.87046875 2.855625 32.7734375 2.78125 C16.7217158 1.08220161 16.7217158 1.08220161 1 3 C0.67 2.01 0.34 1.02 0 0 Z " fill="#D0F3FA" transform="translate(488,276)"/>
<path d="M0 0 C0.66 0 1.32 0 2 0 C2.6875 1.6875 2.6875 1.6875 3 4 C1.875 6.25 1.875 6.25 0 9 C-3.00775467 13.55406115 -5.53604551 17.67652912 -7 23 C-8.31223496 19.06329512 -7.24296256 16.87511856 -6 13 C-5.34 13 -4.68 13 -4 13 C-3.86722656 12.43796875 -3.73445312 11.8759375 -3.59765625 11.296875 C-2.97562889 8.90633847 -2.22884959 6.58964225 -1.4375 4.25 C-1.16808594 3.45078125 -0.89867187 2.6515625 -0.62109375 1.828125 C-0.41613281 1.22484375 -0.21117187 0.6215625 0 0 Z " fill="#97D5EA" transform="translate(549,363)"/>
<path d="M0 0 C0.66 0 1.32 0 2 0 C2 5.94 2 11.88 2 18 C1.34 18 0.68 18 0 18 C-0.66 13.05 -1.32 8.1 -2 3 C-1.34 3 -0.68 3 0 3 C0 2.01 0 1.02 0 0 Z " fill="#070707" transform="translate(1410,553)"/>
<path d="M0 0 C0.66 0 1.32 0 2 0 C2 5.94 2 11.88 2 18 C1.34 18 0.68 18 0 18 C-0.66 13.05 -1.32 8.1 -2 3 C-1.34 3 -0.68 3 0 3 C0 2.01 0 1.02 0 0 Z " fill="#070707" transform="translate(1028,553)"/>
<path d="M0 0 C0.99 0 1.98 0 3 0 C3.20625 1.27875 3.4125 2.5575 3.625 3.875 C4.08483533 6.07813968 4.08483533 6.07813968 5 8 C7.99428144 9.61147442 7.99428144 9.61147442 11 10 C9.68 10.33 8.36 10.66 7 11 C7 11.66 7 12.32 7 13 C3.62822203 11.60478153 1.74982291 10.23717239 0 7 C-0.1875 3.25 -0.1875 3.25 0 0 Z " fill="#262626" transform="translate(1466,558)"/>
<path d="M0 0 C0.99 0 1.98 0 3 0 C3.20625 1.27875 3.4125 2.5575 3.625 3.875 C4.08483533 6.07813968 4.08483533 6.07813968 5 8 C7.99428144 9.61147442 7.99428144 9.61147442 11 10 C9.68 10.33 8.36 10.66 7 11 C7 11.66 7 12.32 7 13 C3.62822203 11.60478153 1.74982291 10.23717239 0 7 C-0.1875 3.25 -0.1875 3.25 0 0 Z " fill="#262626" transform="translate(1196,558)"/>
<path d="M0 0 C0.99 0 1.98 0 3 0 C3.20625 1.27875 3.4125 2.5575 3.625 3.875 C4.08483533 6.07813968 4.08483533 6.07813968 5 8 C7.99428144 9.61147442 7.99428144 9.61147442 11 10 C9.68 10.33 8.36 10.66 7 11 C7 11.66 7 12.32 7 13 C3.62822203 11.60478153 1.74982291 10.23717239 0 7 C-0.1875 3.25 -0.1875 3.25 0 0 Z " fill="#262626" transform="translate(956,558)"/>
<path d="M0 0 C0.66 0.33 1.32 0.66 2 1 C1.01 2.485 1.01 2.485 0 4 C-0.66 4 -1.32 4 -2 4 C-2.33 5.32 -2.66 6.64 -3 8 C-3.66 8 -4.32 8 -5 8 C-5.226875 8.556875 -5.45375 9.11375 -5.6875 9.6875 C-7.68085165 13.19959577 -10.36119749 16.18059875 -14 18 C-12.49853841 12.95394871 -9.43322694 9.89020251 -5.875 6.1875 C-5.03001953 5.2912793 -5.03001953 5.2912793 -4.16796875 4.37695312 C-2.7850002 2.91194406 -1.39335215 1.45513688 0 0 Z " fill="#C0E7F3" transform="translate(429,490)"/>
<path d="M0 0 C2.33944736 0.28730055 4.6739143 0.61936779 7 1 C7.33 2.32 7.66 3.64 8 5 C4.7 5 1.4 5 -2 5 C-1 1 -1 1 0 0 Z " fill="#F5F5F5" transform="translate(1346,555)"/>
<path d="M0 0 C2.33944736 0.28730055 4.6739143 0.61936779 7 1 C7.33 2.32 7.66 3.64 8 5 C4.7 5 1.4 5 -2 5 C-1 1 -1 1 0 0 Z " fill="#F5F5F5" transform="translate(1277,555)"/>
<path d="M0 0 C0.99 0.33 1.98 0.66 3 1 C3.6875 3.0625 3.6875 3.0625 4 5 C4.99 4.01 5.98 3.02 7 2 C6.67 4.64 6.34 7.28 6 10 C4.35 9.67 2.7 9.34 1 9 C0.67 6.03 0.34 3.06 0 0 Z " fill="#151515" transform="translate(1087,561)"/>
<path d="M0 0 C0.99 0.33 1.98 0.66 3 1 C3.6875 3.0625 3.6875 3.0625 4 5 C4.99 4.01 5.98 3.02 7 2 C6.67 4.64 6.34 7.28 6 10 C4.35 9.67 2.7 9.34 1 9 C0.67 6.03 0.34 3.06 0 0 Z " fill="#151515" transform="translate(842,561)"/>
<path d="M0 0 C0.33 0 0.66 0 1 0 C1.45572917 2.01822917 1.91145833 4.03645833 2.3671875 6.0546875 C2.90474428 8.20719964 2.90474428 8.20719964 5 10 C7.06874034 10.6425235 7.06874034 10.6425235 9 11 C9 11.66 9 12.32 9 13 C5.54330418 13.31424507 3.60098323 13.37956836 0.625 11.5 C-1.75756243 7.83451933 -1.35451424 5.32507378 -1 1 C-0.67 0.67 -0.34 0.34 0 0 Z " fill="#080808" transform="translate(1238,558)"/>
<path d="M0 0 C0.33 0 0.66 0 1 0 C1.45572917 2.01822917 1.91145833 4.03645833 2.3671875 6.0546875 C2.90474428 8.20719964 2.90474428 8.20719964 5 10 C7.06874034 10.6425235 7.06874034 10.6425235 9 11 C9 11.66 9 12.32 9 13 C5.54330418 13.31424507 3.60098323 13.37956836 0.625 11.5 C-1.75756243 7.83451933 -1.35451424 5.32507378 -1 1 C-0.67 0.67 -0.34 0.34 0 0 Z " fill="#080808" transform="translate(902,558)"/>
<path d="M0 0 C1 2 1 2 0.07421875 5.37109375 C-0.38025562 6.7291858 -0.8428591 8.08457783 -1.3125 9.4375 C-1.53873047 10.11876953 -1.76496094 10.80003906 -1.99804688 11.50195312 C-3.07011098 14.65635499 -4.14170167 17.21255251 -6 20 C-6.66 20 -7.32 20 -8 20 C-7.731875 19.360625 -7.46375 18.72125 -7.1875 18.0625 C-6.2223614 15.57345834 -5.37749513 13.10185326 -4.5625 10.5625 C-3.34672387 6.85314221 -1.85472925 3.44449719 0 0 Z " fill="#9DD6EA" transform="translate(400,538)"/>
<path d="M0 0 C0.6328125 1.859375 0.6328125 1.859375 1 4 C-0.61838719 5.71358643 -2.29671681 7.3707726 -4 9 C-5.38119952 11.10114488 -6.64592477 13.23923552 -7.88671875 15.42578125 C-8.43779297 16.20501953 -8.43779297 16.20501953 -9 17 C-9.66 17 -10.32 17 -11 17 C-10.50521514 12.54693628 -9.20056327 11.02755985 -6 8 C-3.93557545 5.38035124 -1.9631804 2.69610108 0 0 Z " fill="#90CDE5" transform="translate(423,502)"/>
<path d="M0 0 C0 3.93602341 -1.58022978 4.99361881 -4 8 C-4.165 8.70125 -4.33 9.4025 -4.5 10.125 C-5.20714556 12.77679584 -6.75786904 13.5534639 -9 15 C-9.2500201 11.99975884 -9.28636724 10.44256756 -7.625 7.875 C-7.08875 7.25625 -6.5525 6.6375 -6 6 C-5.34 5.01 -4.68 4.02 -4 3 C-2.69481525 1.96352976 -1.36538653 0.95577057 0 0 Z " fill="#65B2D3" transform="translate(417,521)"/>
<path d="M0 0 C-1.55295444 1.32378058 -3.11780082 2.63361849 -4.6875 3.9375 C-5.55761719 4.66839844 -6.42773438 5.39929688 -7.32421875 6.15234375 C-10.01522974 8.0105163 -11.78756588 8.63534532 -15 9 C-11.97792772 4.84465062 -5.72761782 -2.86380891 0 0 Z " fill="#96D0E6" transform="translate(497,443)"/>
<path d="M0 0 C0 0.99 0 1.98 0 3 C-1.98 3.99 -1.98 3.99 -4 5 C-3 2 -3 2 0 0 Z M-5 5 C-4.67 5 -4.34 5 -4 5 C-3.43111479 8.8684194 -3.98300826 9.97611972 -6.3125 13.25 C-9 16 -9 16 -12 17 C-11.45028435 13.15199046 -9.72962142 11.64690561 -7 9 C-5.76487921 6.86690808 -5.76487921 6.86690808 -5 5 Z " fill="#7CC1DD" transform="translate(423,506)"/>
<path d="M0 0 C0.33 0 0.66 0 1 0 C1.29528986 14.4692029 1.29528986 14.4692029 -2.0625 18.4375 C-2.701875 18.953125 -3.34125 19.46875 -4 20 C-3.67 18.783125 -3.34 17.56625 -3 16.3125 C-2.19165352 13.10172517 -1.91030113 10.31885811 -2 7 C-1.57724891 4.40310043 -1.17629827 2.35259654 0 0 Z " fill="#B8E5F4" transform="translate(546,354)"/>
<path d="M0 0 C0.33 0.66 0.66 1.32 1 2 C1.66 2.33 2.32 2.66 3 3 C2.57781184 4.6498275 2.13675575 6.29483665 1.6875 7.9375 C1.44386719 8.85402344 1.20023438 9.77054688 0.94921875 10.71484375 C0.63597656 11.46894531 0.32273437 12.22304688 0 13 C-0.99 13.33 -1.98 13.66 -3 14 C-2.68872484 12.41642541 -2.37592711 10.83315007 -2.0625 9.25 C-1.80146484 7.92742188 -1.80146484 7.92742188 -1.53515625 6.578125 C-1.07631512 4.36764947 -0.56663926 2.18487932 0 0 Z " fill="#242424" transform="translate(1319,551)"/>
<path d="M0 0 C0.66 0.33 1.32 0.66 2 1 C1.21625 1.7425 0.4325 2.485 -0.375 3.25 C-2.99725441 5.682688 -2.99725441 5.682688 -3.875 8 C-5.71541855 11.2718552 -8.9033991 12.9797577 -12 15 C-12 13.68 -12 12.36 -12 11 C-10.60261833 10.03514123 -9.19508792 9.08083784 -7.734375 8.21484375 C-4.60416183 6.02228452 -2.35757652 2.97623135 0 0 Z " fill="#9DD5E9" transform="translate(436,487)"/>
<path d="M0 0 C0.99 0.33 1.98 0.66 3 1 C1.68 4.63 0.36 8.26 -1 12 C-1.99 11.67 -2.98 11.34 -4 11 C-3.5247412 9.35303396 -3.04468109 7.70745272 -2.5625 6.0625 C-2.29566406 5.14597656 -2.02882813 4.22945312 -1.75390625 3.28515625 C-1 1 -1 1 0 0 Z " fill="#1A1A1A" transform="translate(1231,553)"/>
<path d="M0 0 C0.93065133 2.60582371 1.14917407 3.64198224 0.0625 6.25 C-0.4634375 7.11625 -0.4634375 7.11625 -1 8 C-2.32 8 -3.64 8 -5 8 C-5.33 6.02 -5.66 4.04 -6 2 C-4.68 2 -3.36 2 -2 2 C-1.34 1.34 -0.68 0.68 0 0 Z " fill="#0E0E0E" transform="translate(1228,563)"/>
<path d="M0 0 C0.99 0 1.98 0 3 0 C2.44687265 4.02992782 1.8441938 8.02022924 1 12 C0.01 11.34 -0.98 10.68 -2 10 C-1.34 6.7 -0.68 3.4 0 0 Z " fill="#212121" transform="translate(1334,548)"/>
<path d="M0 0 C0.33 0.66 0.66 1.32 1 2 C-0.07408957 4.60474038 -1.20045633 7.09966038 -2.4375 9.625 C-2.77587891 10.33140625 -3.11425781 11.0378125 -3.46289062 11.765625 C-4.30154879 13.51381384 -5.14987847 15.25735686 -6 17 C-6.66 17 -7.32 17 -8 17 C-6.19389405 10.65660349 -3.74372266 5.43061745 0 0 Z " fill="#9AD4E9" transform="translate(539,387)"/>
<path d="M0 0 C0.66 0.33 1.32 0.66 2 1 C-0.33846154 7.52307692 -0.33846154 7.52307692 -3.6875 9.9375 C-4.450625 10.288125 -5.21375 10.63875 -6 11 C-5.39305845 7.84669446 -4.3583335 5.81111133 -2.4375 3.25 C-1.98246094 2.63640625 -1.52742188 2.0228125 -1.05859375 1.390625 C-0.70925781 0.93171875 -0.35992187 0.4728125 0 0 Z " fill="#B5E1F0" transform="translate(411,511)"/>
<path d="M0 0 C0.99 0.33 1.98 0.66 3 1 C2.33613281 1.45890625 1.67226563 1.9178125 0.98828125 2.390625 C-3.44798964 5.47334754 -7.84624016 8.53853346 -12 12 C-12.66 11.67 -13.32 11.34 -14 11 C-12.41728767 9.72839334 -10.83380365 8.45774715 -9.25 7.1875 C-8.36828125 6.47980469 -7.4865625 5.77210938 -6.578125 5.04296875 C-5.72734375 4.36878906 -4.8765625 3.69460938 -4 3 C-3.29359375 2.39800781 -2.5871875 1.79601562 -1.859375 1.17578125 C-1.24578125 0.78777344 -0.6321875 0.39976562 0 0 Z " fill="#E2F8FB" transform="translate(450,289)"/>
<path d="M0 0 C0.66 0 1.32 0 2 0 C2 0.99 2 1.98 2 3 C0.25 4.60546875 0.25 4.60546875 -2 6.1875 C-2.7425 6.71730469 -3.485 7.24710938 -4.25 7.79296875 C-4.8275 8.19128906 -5.405 8.58960938 -6 9 C-6.66 8.34 -7.32 7.68 -8 7 C-2.25 2 -2.25 2 0 2 C0 1.34 0 0.68 0 0 Z " fill="#71B6D2" transform="translate(655,550)"/>
<path d="M0 0 C0.33 0.99 0.66 1.98 1 3 C-1.55068845 5.35448165 -2.71017358 5.98327924 -6.25 6.1875 C-7.1575 6.125625 -8.065 6.06375 -9 6 C-9 5.34 -9 4.68 -9 4 C-7.88625 3.525625 -6.7725 3.05125 -5.625 2.5625 C-3.73289006 1.74693537 -1.84287291 0.92143645 0 0 Z " fill="#0B0B0B" transform="translate(1482,565)"/>
<path d="M0 0 C0.33 0.99 0.66 1.98 1 3 C-1.55068845 5.35448165 -2.71017358 5.98327924 -6.25 6.1875 C-7.1575 6.125625 -8.065 6.06375 -9 6 C-9 5.34 -9 4.68 -9 4 C-7.88625 3.525625 -6.7725 3.05125 -5.625 2.5625 C-3.73289006 1.74693537 -1.84287291 0.92143645 0 0 Z " fill="#0B0B0B" transform="translate(1212,565)"/>
<path d="M0 0 C0.33 0.99 0.66 1.98 1 3 C-1.55068845 5.35448165 -2.71017358 5.98327924 -6.25 6.1875 C-7.1575 6.125625 -8.065 6.06375 -9 6 C-9 5.34 -9 4.68 -9 4 C-7.88625 3.525625 -6.7725 3.05125 -5.625 2.5625 C-3.73289006 1.74693537 -1.84287291 0.92143645 0 0 Z " fill="#0B0B0B" transform="translate(972,565)"/>
<path d="M0 0 C5.5 -0.36666667 5.5 -0.36666667 7.875 1.375 C9 3 9 3 9 5 C5.58978257 4.21302675 2.31114834 3.12880057 -1 2 C-0.67 1.34 -0.34 0.68 0 0 Z " fill="#101010" transform="translate(1443,553)"/>
<path d="M0 0 C0.66 0.33 1.32 0.66 2 1 C0.625 3.5 0.625 3.5 -1 6 C-1.66 6 -2.32 6 -3 6 C-3.33 7.98 -3.66 9.96 -4 12 C-4.33 12 -4.66 12 -5 12 C-5.3125 8.8125 -5.3125 8.8125 -5 5 C-2.5 2.0625 -2.5 2.0625 0 0 Z " fill="#2C2C2C" transform="translate(1241,553)"/>
<path d="M0 0 C0.66 0.33 1.32 0.66 2 1 C0.625 3.5 0.625 3.5 -1 6 C-1.66 6 -2.32 6 -3 6 C-3.33 7.98 -3.66 9.96 -4 12 C-4.33 12 -4.66 12 -5 12 C-5.3125 8.8125 -5.3125 8.8125 -5 5 C-2.5 2.0625 -2.5 2.0625 0 0 Z " fill="#2C2C2C" transform="translate(905,553)"/>
<path d="M0 0 C0 4.02046842 -1.26140024 5.11726341 -4 8 C-7.25 9.8125 -7.25 9.8125 -10 11 C-8.85455923 7.56367769 -7.7288492 6.66528415 -5 4.375 C-4.278125 3.76398438 -3.55625 3.15296875 -2.8125 2.5234375 C-2.214375 2.02070313 -1.61625 1.51796875 -1 1 C-0.67 0.67 -0.34 0.34 0 0 Z " fill="#B1DFEF" transform="translate(423,500)"/>
<path d="M0 0 C0.99 0 1.98 0 3 0 C1.95125002 2.62187494 1.35068687 3.79371361 -1.125 5.25 C-1.74375 5.4975 -2.3625 5.745 -3 6 C-3 5.34 -3 4.68 -3 4 C-4.65 4 -6.3 4 -8 4 C-8 3.67 -8 3.34 -8 3 C-6.865625 2.690625 -5.73125 2.38125 -4.5625 2.0625 C-1.21224901 1.37075469 -1.21224901 1.37075469 0 0 Z " fill="#3A3A3A" transform="translate(1130,565)"/>
<path d="M0 0 C0.99 0 1.98 0 3 0 C1.95125002 2.62187494 1.35068687 3.79371361 -1.125 5.25 C-1.74375 5.4975 -2.3625 5.745 -3 6 C-3 5.34 -3 4.68 -3 4 C-4.65 4 -6.3 4 -8 4 C-8 3.67 -8 3.34 -8 3 C-6.865625 2.690625 -5.73125 2.38125 -4.5625 2.0625 C-1.21224901 1.37075469 -1.21224901 1.37075469 0 0 Z " fill="#3A3A3A" transform="translate(1061,565)"/>
<path d="M0 0 C0.99 0 1.98 0 3 0 C1.95125002 2.62187494 1.35068687 3.79371361 -1.125 5.25 C-1.74375 5.4975 -2.3625 5.745 -3 6 C-3 5.34 -3 4.68 -3 4 C-4.65 4 -6.3 4 -8 4 C-8 3.67 -8 3.34 -8 3 C-6.865625 2.690625 -5.73125 2.38125 -4.5625 2.0625 C-1.21224901 1.37075469 -1.21224901 1.37075469 0 0 Z " fill="#3A3A3A" transform="translate(885,565)"/>
<path d="M0 0 C0.33 0 0.66 0 1 0 C0.67 2.31 0.34 4.62 0 7 C-1.32 7 -2.64 7 -4 7 C-4 5.68 -4 4.36 -4 3 C-3.01 3 -2.02 3 -1 3 C-0.67 2.01 -0.34 1.02 0 0 Z " fill="#101010" transform="translate(1317,564)"/>
<path d="M0 0 C0.99 0.33 1.98 0.66 3 1 C3 2.32 3 3.64 3 5 C3.66 5 4.32 5 5 5 C5 5.66 5 6.32 5 7 C4.01 7 3.02 7 2 7 C1.67 7.66 1.34 8.32 1 9 C0.67 6.03 0.34 3.06 0 0 Z " fill="#262626" transform="translate(1311,560)"/>
<path d="M0 0 C0.99 0.33 1.98 0.66 3 1 C3 2.32 3 3.64 3 5 C3.66 5 4.32 5 5 5 C5 5.66 5 6.32 5 7 C4.01 7 3.02 7 2 7 C1.67 7.66 1.34 8.32 1 9 C0.67 6.03 0.34 3.06 0 0 Z " fill="#282828" transform="translate(1101,560)"/>
<path d="M0 0 C0.99 0.33 1.98 0.66 3 1 C3 2.32 3 3.64 3 5 C3.66 5 4.32 5 5 5 C5 5.66 5 6.32 5 7 C4.01 7 3.02 7 2 7 C1.67 7.66 1.34 8.32 1 9 C0.67 6.03 0.34 3.06 0 0 Z " fill="#282828" transform="translate(856,560)"/>
<path d="M0 0 C0.99 0 1.98 0 3 0 C2.125 5.75 2.125 5.75 1 8 C0.34 8 -0.32 8 -1 8 C-1.125 2.25 -1.125 2.25 0 0 Z " fill="#101010" transform="translate(1110,548)"/>
<path d="M0 0 C0.99 0 1.98 0 3 0 C2.125 5.75 2.125 5.75 1 8 C0.34 8 -0.32 8 -1 8 C-1.125 2.25 -1.125 2.25 0 0 Z " fill="#101010" transform="translate(865,548)"/>
<path d="M0 0 C0.66 0.33 1.32 0.66 2 1 C-0.80627778 5.74908547 -3.25091453 8.19372222 -8 11 C-6.50592885 6.2687747 -6.50592885 6.2687747 -4 4.9375 C-3.34 4.628125 -2.68 4.31875 -2 4 C-0.73195434 1.9664052 -0.73195434 1.9664052 0 0 Z " fill="#99D3E8" transform="translate(523,412)"/>
<path d="M0 0 C-1.44253657 3.36591866 -3.33264727 5.51047079 -6 8 C-6.99 7.67 -7.98 7.34 -9 7 C-8.34 7 -7.68 7 -7 7 C-6.731875 6.401875 -6.46375 5.80375 -6.1875 5.1875 C-3.37142857 0 -3.37142857 0 0 0 Z " fill="#6FB6D1" transform="translate(628,574)"/>
<path d="M0 0 C0.93423645 3.01031744 1.04449911 3.86650268 0 7 C-1.32 7 -2.64 7 -4 7 C-4 5.68 -4 4.36 -4 3 C-3.01 3 -2.02 3 -1 3 C-0.67 2.01 -0.34 1.02 0 0 Z " fill="#070707" transform="translate(1107,564)"/>
<path d="M0 0 C0.93423645 3.01031744 1.04449911 3.86650268 0 7 C-1.32 7 -2.64 7 -4 7 C-4 5.68 -4 4.36 -4 3 C-3.01 3 -2.02 3 -1 3 C-0.67 2.01 -0.34 1.02 0 0 Z " fill="#070707" transform="translate(862,564)"/>
<path d="M0 0 C0.99 0 1.98 0 3 0 C3 1.32 3 2.64 3 4 C-1.75 5.125 -1.75 5.125 -4 4 C-3.67 3.01 -3.34 2.02 -3 1 C-2.34 1 -1.68 1 -1 1 C-0.67 0.67 -0.34 0.34 0 0 Z " fill="#3A3A3A" transform="translate(1495,552)"/>
<path d="M0 0 C0.99 0 1.98 0 3 0 C3 1.32 3 2.64 3 4 C-1.75 5.125 -1.75 5.125 -4 4 C-3.67 3.01 -3.34 2.02 -3 1 C-2.34 1 -1.68 1 -1 1 C-0.67 0.67 -0.34 0.34 0 0 Z " fill="#3A3A3A" transform="translate(1389,552)"/>
<path d="M0 0 C1.10844919 3.32534757 0.84454356 5.62182575 0 9 C-0.99 8.67 -1.98 8.34 -3 8 C-2.74438677 5.6568787 -2.40729228 3.32156597 -2 1 C-1.34 0.67 -0.68 0.34 0 0 Z " fill="#282828" transform="translate(1095,556)"/>
<path d="M0 0 C1.10844919 3.32534757 0.84454356 5.62182575 0 9 C-0.99 8.67 -1.98 8.34 -3 8 C-2.74438677 5.6568787 -2.40729228 3.32156597 -2 1 C-1.34 0.67 -0.68 0.34 0 0 Z " fill="#282828" transform="translate(850,556)"/>
<path d="M0 0 C1 3 1 3 0.0625 5.1875 C-0.4634375 6.0846875 -0.4634375 6.0846875 -1 7 C-1.66 7 -2.32 7 -3 7 C-3.33 8.32 -3.66 9.64 -4 11 C-4.33 10.34 -4.66 9.68 -5 9 C-3.56224304 5.78216298 -1.95582488 2.93373731 0 0 Z " fill="#C7EBF6" transform="translate(531,393)"/>
<path d="M0 0 C0.66 0.66 1.32 1.32 2 2 C1.625 4.125 1.625 4.125 1 6 C-0.32 6 -1.64 6 -3 6 C-3 5.34 -3 4.68 -3 4 C-4.32 3.67 -5.64 3.34 -7 3 C-5.5459375 2.814375 -5.5459375 2.814375 -4.0625 2.625 C-2.5465625 2.315625 -2.5465625 2.315625 -1 2 C-0.67 1.34 -0.34 0.68 0 0 Z " fill="#404040" transform="translate(1408,565)"/>
<path d="M0 0 C0.66 0.66 1.32 1.32 2 2 C1.625 4.125 1.625 4.125 1 6 C-0.32 6 -1.64 6 -3 6 C-3 5.34 -3 4.68 -3 4 C-4.32 3.67 -5.64 3.34 -7 3 C-5.5459375 2.814375 -5.5459375 2.814375 -4.0625 2.625 C-2.5465625 2.315625 -2.5465625 2.315625 -1 2 C-0.67 1.34 -0.34 0.68 0 0 Z " fill="#404040" transform="translate(1026,565)"/>
<path d="M0 0 C0.66 0.33 1.32 0.66 2 1 C-0.48952921 3.66735273 -2.63408134 5.55746343 -6 7 C-5.34 5.35 -4.68 3.7 -4 2 C-2.68 2 -1.36 2 0 2 C0 1.34 0 0.68 0 0 Z " fill="#BBE4F2" transform="translate(464,462)"/>
<path d="M0 0 C0.66 0.33 1.32 0.66 2 1 C2 1.66 2 2.32 2 3 C-1.46153846 6 -1.46153846 6 -4 6 C-2.25 1.125 -2.25 1.125 0 0 Z " fill="#161616" transform="translate(1471,553)"/>
<path d="M0 0 C0.66 0.33 1.32 0.66 2 1 C2 1.66 2 2.32 2 3 C-1.46153846 6 -1.46153846 6 -4 6 C-2.25 1.125 -2.25 1.125 0 0 Z " fill="#161616" transform="translate(1201,553)"/>
<path d="M0 0 C0.66 0.33 1.32 0.66 2 1 C2 1.66 2 2.32 2 3 C-1.46153846 6 -1.46153846 6 -4 6 C-2.25 1.125 -2.25 1.125 0 0 Z " fill="#161616" transform="translate(961,553)"/>
<path d="M0 0 C0.99 0.33 1.98 0.66 3 1 C3 2.98 3 4.96 3 7 C2.34 7 1.68 7 1 7 C0.67 4.69 0.34 2.38 0 0 Z " fill="#0F0F0F" transform="translate(1087,561)"/>
<path d="M0 0 C0.99 0.33 1.98 0.66 3 1 C3 2.98 3 4.96 3 7 C2.34 7 1.68 7 1 7 C0.67 4.69 0.34 2.38 0 0 Z " fill="#0F0F0F" transform="translate(842,561)"/>
<path d="M0 0 C1.98 0 3.96 0 6 0 C6 0.99 6 1.98 6 3 C3.69 3 1.38 3 -1 3 C-0.67 2.01 -0.34 1.02 0 0 Z " fill="#121212" transform="translate(1243,553)"/>
<path d="M0 0 C1.98 0 3.96 0 6 0 C6 0.99 6 1.98 6 3 C3.69 3 1.38 3 -1 3 C-0.67 2.01 -0.34 1.02 0 0 Z " fill="#121212" transform="translate(907,553)"/>
<path d="M0 0 C0.99 0.33 1.98 0.66 3 1 C0.525 4.465 0.525 4.465 -2 8 C-2.33 7.34 -2.66 6.68 -3 6 C-2.06553465 3.96855359 -1.06775224 1.96466413 0 0 Z " fill="#84C7E1" transform="translate(536,396)"/>
</svg>
